<svg width="1003" height="1021" xmlns="http://www.w3.org/2000/svg" xmlns:xlink="http://www.w3.org/1999/xlink" xml:space="preserve" overflow="hidden"><defs><filter id="fx0" x="-10%" y="-10%" width="120%" height="120%" filterUnits="userSpaceOnUse" primitiveUnits="userSpaceOnUse"><feComponentTransfer color-interpolation-filters="sRGB"><feFuncR type="discrete" tableValues="0.000000 0.000000"/><feFuncG type="discrete" tableValues="0.000000 0.000000"/><feFuncB type="discrete" tableValues="0.000000 0.000000"/><feFuncA type="linear" slope="0.650980" intercept="0.000000"/></feComponentTransfer><feGaussianBlur stdDeviation="8.787766 8.793344"/></filter><clipPath id="clip1"><rect x="15.5725" y="22.5774" width="348.935" height="349.416"/></clipPath><clipPath id="clip2"><rect x="0" y="0" width="385" height="391"/></clipPath><clipPath id="clip3"><rect x="0" y="0" width="385" height="391"/></clipPath></defs><g transform="translate(4 18)"><g><g clip-path="url(#clip1)" filter="url(#fx0)" transform="matrix(2.60779 0 0 2.60614 -4 -17)"><g clip-path="url(#clip2)"><g clip-path="url(#clip3)" transform="matrix(1 0 0 1 0 -1.19209e-07)"><g transform="matrix(1 0 0 1 0 -1.19209e-07)"><g transform="matrix(1 0 0 1 0 -1.19209e-07)"><path d="M113.237 204.284C113.256 200.68 113.489 197.079 113.935 193.502L56.3205 193.502 56.3205 214.794 113.893 214.794C113.472 211.306 113.253 207.797 113.237 204.284Z" fill="#FFC000" fill-rule="nonzero" fill-opacity="1" transform="matrix(1 0 0 1.00151 -14.3847 -7.17092)"/><path d="M204.425 113.097C207.983 113.113 211.538 113.339 215.07 113.774L215.07 56.0437 193.779 56.0437 193.779 113.774C197.311 113.339 200.866 113.113 204.425 113.097Z" fill="#FFC000" fill-rule="nonzero" fill-opacity="1" transform="matrix(1 0 0 1.00151 -14.3847 -7.17092)"/><path d="M275.854 147.764 316.678 106.943 301.625 91.8944 260.779 132.736C266.369 137.144 271.428 142.187 275.854 147.764Z" fill="#FFC000" fill-rule="nonzero" fill-opacity="1" transform="matrix(1 0 0 1.00151 -14.3847 -7.17092)"/><path d="M148.07 132.736 107.229 91.8944 92.1755 106.948 132.996 147.764C137.421 142.187 142.48 137.144 148.07 132.736Z" fill="#FFC000" fill-rule="nonzero" fill-opacity="1" transform="matrix(1 0 0 1.00151 -14.3847 -7.17092)"/><path d="M260.937 275.717 301.625 316.393 316.678 301.335 275.973 260.63C271.563 266.225 266.516 271.288 260.937 275.717Z" fill="#FFC000" fill-rule="nonzero" fill-opacity="1" transform="matrix(1 0 0 1.00151 -14.3847 -7.17092)"/><path d="M294.914 193.502C295.831 200.569 295.845 207.724 294.956 214.794L352.529 214.794 352.529 193.502Z" fill="#FFC000" fill-rule="nonzero" fill-opacity="1" transform="matrix(1 0 0 1.00151 -14.3847 -7.17092)"/><path d="M204.425 295.476C200.866 295.458 197.311 295.232 193.779 294.799L193.779 352.252 215.07 352.252 215.07 294.799C211.538 295.231 207.983 295.457 204.425 295.476Z" fill="#FFC000" fill-rule="nonzero" fill-opacity="1" transform="matrix(1 0 0 1.00151 -14.3847 -7.17092)"/><path d="M132.859 260.643 92.1585 301.344 107.229 316.393 147.908 275.713C142.327 271.288 137.277 266.231 132.859 260.643Z" fill="#FFC000" fill-rule="nonzero" fill-opacity="1" transform="matrix(1 0 0 1.00151 -14.3847 -7.17092)"/><path d="M278.579 204.284C278.579 245.239 245.379 278.438 204.425 278.438 163.47 278.438 130.27 245.239 130.27 204.284 130.27 163.33 163.47 130.13 204.425 130.13 245.379 130.13 278.579 163.33 278.579 204.284Z" fill="#FFC000" fill-rule="nonzero" fill-opacity="1" transform="matrix(1 0 0 1.00151 -14.3847 -7.17092)"/></g></g></g></g></g><g><g><path d="M295.299 532.731C295.349 523.33 295.956 513.941 297.12 504.613L146.872 504.613 146.872 560.137 297.009 560.137C295.911 551.042 295.34 541.892 295.299 532.731Z" fill="#FFC000" fill-rule="nonzero" fill-opacity="1" transform="matrix(1 0 0 1.00087 -51.235 -45.4111)"/><path d="M533.097 294.932C542.377 294.976 551.648 295.564 560.859 296.698L560.859 146.15 505.335 146.15 505.335 296.698C514.547 295.564 523.817 294.975 533.097 294.932Z" fill="#FFC000" fill-rule="nonzero" fill-opacity="1" transform="matrix(1 0 0 1.00087 -51.235 -45.4111)"/><path d="M719.369 385.337 825.831 278.886 786.575 239.642 680.058 346.148C694.635 357.643 707.828 370.795 719.369 385.337Z" fill="#FFC000" fill-rule="nonzero" fill-opacity="1" transform="matrix(1 0 0 1.00087 -51.235 -45.4111)"/><path d="M386.136 346.148 279.63 239.642 240.375 278.897 346.825 385.337C358.366 370.795 371.559 357.643 386.136 346.148Z" fill="#FFC000" fill-rule="nonzero" fill-opacity="1" transform="matrix(1 0 0 1.00087 -51.235 -45.4111)"/><path d="M680.469 719.014 786.575 825.087 825.831 785.82 719.68 679.669C708.179 694.26 695.02 707.463 680.469 719.014Z" fill="#FFC000" fill-rule="nonzero" fill-opacity="1" transform="matrix(1 0 0 1.00087 -51.235 -45.4111)"/><path d="M769.074 504.613C771.465 523.042 771.502 541.7 769.185 560.137L919.322 560.137 919.322 504.613Z" fill="#FFC000" fill-rule="nonzero" fill-opacity="1" transform="matrix(1 0 0 1.00087 -51.235 -45.4111)"/><path d="M533.097 770.54C523.817 770.492 514.547 769.903 505.335 768.774L505.335 918.6 560.859 918.6 560.859 768.774C551.648 769.901 542.377 770.491 533.097 770.54Z" fill="#FFC000" fill-rule="nonzero" fill-opacity="1" transform="matrix(1 0 0 1.00087 -51.235 -45.4111)"/><path d="M346.47 679.703 240.33 785.842 279.63 825.087 385.714 719.003C371.158 707.463 357.989 694.274 346.47 679.703Z" fill="#FFC000" fill-rule="nonzero" fill-opacity="1" transform="matrix(1 0 0 1.00087 -51.235 -45.4111)"/><path d="M726.476 532.731C726.476 639.531 639.898 726.11 533.097 726.11 426.297 726.11 339.718 639.531 339.718 532.731 339.718 425.93 426.297 339.352 533.097 339.352 639.898 339.352 726.476 425.93 726.476 532.731Z" fill="#FFC000" fill-rule="nonzero" fill-opacity="1" transform="matrix(1 0 0 1.00087 -51.235 -45.4111)"/></g></g></g></g></svg>