<svg width="1027" height="999" xmlns="http://www.w3.org/2000/svg" xmlns:xlink="http://www.w3.org/1999/xlink" xml:space="preserve" overflow="hidden"><defs><filter id="fx0" x="-10%" y="-10%" width="120%" height="120%" filterUnits="userSpaceOnUse" primitiveUnits="userSpaceOnUse"><feComponentTransfer color-interpolation-filters="sRGB"><feFuncR type="discrete" tableValues="0.000000 0.000000"/><feFuncG type="discrete" tableValues="0.000000 0.000000"/><feFuncB type="discrete" tableValues="0.000000 0.000000"/><feFuncA type="linear" slope="0.650980" intercept="0.000000"/></feComponentTransfer><feGaussianBlur stdDeviation="8.769444 8.769444"/></filter><filter id="fx1" x="-10%" y="-10%" width="120%" height="120%" filterUnits="userSpaceOnUse" primitiveUnits="userSpaceOnUse"><feComponentTransfer color-interpolation-filters="sRGB"><feFuncR type="discrete" tableValues="0.000000 0.000000"/><feFuncG type="discrete" tableValues="0.000000 0.000000"/><feFuncB type="discrete" tableValues="0.000000 0.000000"/><feFuncA type="linear" slope="0.650980" intercept="0.000000"/></feComponentTransfer><feGaussianBlur stdDeviation="8.780238 8.795309"/></filter><filter id="fx2" x="-10%" y="-10%" width="120%" height="120%" filterUnits="userSpaceOnUse" primitiveUnits="userSpaceOnUse"><feComponentTransfer color-interpolation-filters="sRGB"><feFuncR type="discrete" tableValues="0.000000 0.000000"/><feFuncG type="discrete" tableValues="0.000000 0.000000"/><feFuncB type="discrete" tableValues="0.000000 0.000000"/><feFuncA type="linear" slope="0.650980" intercept="0.000000"/></feComponentTransfer><feGaussianBlur stdDeviation="8.800287 8.786515"/></filter><clipPath id="clip3"><rect x="12.2867" y="55.3248" width="259.783" height="172.734"/></clipPath><clipPath id="clip4"><rect x="0" y="0" width="287" height="287"/></clipPath><clipPath id="clip5"><rect x="0" y="0" width="287" height="287"/></clipPath><clipPath id="clip6"><rect x="15.9588" y="72.474" width="323.689" height="210.373"/></clipPath><clipPath id="clip7"><rect x="0" y="0" width="359" height="360"/></clipPath><clipPath id="clip8"><rect x="0" y="0" width="359" height="360"/></clipPath><clipPath id="clip9"><rect x="10.1347" y="45.4135" width="222.526" height="151.17"/></clipPath><clipPath id="clip10"><rect x="0" y="0" width="245" height="245"/></clipPath><clipPath id="clip11"><rect x="0" y="0" width="245" height="245"/></clipPath></defs><g transform="translate(-1952 0)"><g><g clip-path="url(#clip3)" filter="url(#fx0)" transform="matrix(2.61324 0 0 2.61324 2229 22)"><g clip-path="url(#clip4)"><g clip-path="url(#clip5)" transform="matrix(1 0 0 1 -3.21269e-05 -5.96046e-07)"><g transform="matrix(1 0 0 1 -3.21269e-05 -5.96046e-07)"><g transform="matrix(1 0 0 1 -3.21269e-05 -5.96046e-07)"><g transform="matrix(1 0 0 1 -3.21269e-05 -5.96046e-07)"><path d="M216.826 143.151C216.096 143.151 215.124 143.151 214.394 143.151 214.394 143.151 214.394 143.151 214.394 143.151 214.394 131.236 208.559 120.294 199.076 113.486 189.35 106.678 176.949 104.976 165.764 108.866 156.524 90.8729 136.099 81.6331 116.647 86.253 97.1948 90.8729 83.0919 108.38 83.0919 128.562 83.0919 128.562 83.0919 128.805 83.0919 129.048 69.7185 126.86 56.3451 132.452 48.0779 143.151 40.0539 154.093 38.595 168.439 44.1875 180.596 50.0232 192.754 62.1808 200.778 75.5542 201.507L75.5542 201.751 216.583 201.751C232.631 201.751 245.761 188.62 245.761 172.572 245.761 156.524 232.874 143.151 216.826 143.151Z" fill="#F2F2F2" fill-rule="nonzero" fill-opacity="0.64"/></g></g></g></g></g></g><g><g><g><path d="M2785.9 386.365C2783.99 386.365 2781.45 386.365 2779.54 386.365 2779.54 386.365 2779.54 386.365 2779.54 386.365 2779.54 355.229 2764.29 326.635 2739.51 308.844 2714.09 291.052 2681.69 286.604 2652.46 296.771 2628.31 249.75 2574.94 225.604 2524.1 237.677 2473.27 249.75 2436.42 295.5 2436.42 348.24 2436.42 348.24 2436.42 348.875 2436.42 349.51 2401.47 343.792 2366.52 358.406 2344.92 386.365 2323.95 414.958 2320.14 452.448 2334.75 484.219 2350 515.99 2381.77 536.958 2416.72 538.865L2416.72 539.5 2785.26 539.5C2827.2 539.5 2861.51 505.188 2861.51 463.25 2861.51 421.313 2827.83 386.365 2785.9 386.365Z" fill="#F2F2F2" fill-rule="nonzero" fill-opacity="0.64"/></g></g></g><g clip-path="url(#clip6)" filter="url(#fx1)" transform="matrix(2.61003 0 0 2.60556 1987 23)"><g clip-path="url(#clip7)" transform="matrix(1 0 0 1 0 1.77636e-15)"><g clip-path="url(#clip8)" transform="matrix(1 0 0 1 8.64267e-07 -5.96046e-08)"><g transform="matrix(1 0 0 1 8.64267e-07 -5.96046e-08)"><g transform="matrix(1 0 0 1 8.64267e-07 -5.96046e-08)"><g transform="matrix(1 0 0 1 8.64267e-07 -5.96046e-08)"><path d="M248.742 152.362C247.787 152.362 246.515 152.362 245.561 152.362 245.561 152.362 245.561 152.362 245.561 152.362 245.561 136.776 237.927 122.462 225.522 113.556 212.798 104.65 196.576 102.423 181.944 107.512 169.857 83.9742 143.138 71.887 117.691 77.9306 92.2444 83.9742 73.7955 106.876 73.7955 133.277 73.7955 133.277 73.7955 133.595 73.7955 133.913 56.3009 131.051 38.8062 138.367 27.9914 152.362 17.4946 166.676 15.5861 185.443 22.902 201.347 30.5361 217.251 46.4403 227.748 63.9349 228.702L63.9349 229.02 248.424 229.02C269.417 229.02 286.594 211.844 286.594 190.85 286.594 169.857 269.735 152.362 248.742 152.362Z" fill="#DEEBF7" fill-rule="nonzero" fill-opacity="1" transform="matrix(1 0 0 1.00297 26.7134 26.7592)"/></g></g></g></g></g></g><g><g><g><path d="M649.223 397.67C646.732 397.67 643.411 397.67 640.921 397.67 640.921 397.67 640.921 397.67 640.921 397.67 640.921 356.99 620.996 319.63 588.618 296.384 555.409 273.138 513.069 267.327 474.879 280.61 443.331 219.175 373.594 187.627 307.177 203.401 240.76 219.175 192.608 278.95 192.608 347.857 192.608 347.857 192.608 348.687 192.608 349.518 146.947 342.046 101.285 361.141 73.0583 397.67 45.6614 435.029 40.6802 484.011 59.775 525.522 79.7 567.032 121.21 594.429 166.872 596.92L166.872 597.75 648.393 597.75C703.186 597.75 748.018 552.919 748.018 498.125 748.018 443.331 704.016 397.67 649.223 397.67Z" fill="#DEEBF7" fill-rule="nonzero" fill-opacity="1" transform="matrix(1 0 0 1.00126 2047 82.9998)"/></g></g></g><g clip-path="url(#clip9)" filter="url(#fx2)" transform="matrix(2.60408 0 0 2.60816 1957 359)"><g clip-path="url(#clip10)"><g clip-path="url(#clip11)" transform="matrix(1 0 0 1 -1.2666e-05 -6.55651e-07)"><g transform="matrix(1 0 0 1 -1.2666e-05 -6.55651e-07)"><g transform="matrix(1 0 0 1 -1.2666e-05 -6.55651e-07)"><g transform="matrix(1 0 0 1 -1.2666e-05 -6.55651e-07)"><path d="M155.779 95.4199C155.182 95.4199 154.385 95.4199 153.787 95.4199 153.787 95.4199 153.787 95.4199 153.787 95.4199 153.787 85.6588 149.006 76.6945 141.237 71.1167 133.269 65.5389 123.11 64.1445 113.946 67.3318 106.376 52.5905 89.6429 45.0206 73.7064 48.8056 57.7699 52.5905 46.2159 66.9333 46.2159 83.4675 46.2159 83.4675 46.2159 83.6667 46.2159 83.8659 35.2595 82.073 24.3032 86.6548 17.5302 95.4199 10.9564 104.384 9.76111 116.137 14.3429 126.098 19.1238 136.058 29.0841 142.632 40.0405 143.229L40.0405 143.429 155.58 143.429C168.728 143.429 179.485 132.671 179.485 119.524 179.485 106.376 168.927 95.4199 155.779 95.4199Z" fill="#F2F2F2" fill-rule="nonzero" fill-opacity="0.47" transform="matrix(1 0 0 1.00044 26.7745 26.7325)"/></g></g></g></g></g></g><g><g><g><path d="M405.662 248.481C404.106 248.481 402.031 248.481 400.475 248.481 400.475 248.481 400.475 248.481 400.475 248.481 400.475 223.062 388.025 199.719 367.794 185.194 347.044 170.669 320.587 167.037 296.725 175.337 277.012 136.95 233.437 117.237 191.937 127.094 150.437 136.95 120.35 174.3 120.35 217.356 120.35 217.356 120.35 217.875 120.35 218.394 91.8187 213.725 63.2875 225.656 45.65 248.481 28.5312 271.825 25.4187 302.431 37.35 328.369 49.8 354.306 75.7375 371.425 104.269 372.981L104.269 373.5 405.144 373.5C439.381 373.5 467.393 345.487 467.393 311.25 467.393 277.012 439.9 248.481 405.662 248.481Z" fill="#F2F2F2" fill-rule="nonzero" fill-opacity="0.47" transform="matrix(1 0 0 1.00201 2017 419)"/></g></g></g></g></g></svg>