<svg width="1012" height="990" xmlns="http://www.w3.org/2000/svg" xmlns:xlink="http://www.w3.org/1999/xlink" xml:space="preserve" overflow="hidden"><defs><filter id="fx0" x="-10%" y="-10%" width="120%" height="120%" filterUnits="userSpaceOnUse" primitiveUnits="userSpaceOnUse"><feComponentTransfer color-interpolation-filters="sRGB"><feFuncR type="discrete" tableValues="0.000000 0.000000"/><feFuncG type="discrete" tableValues="0.000000 0.000000"/><feFuncB type="discrete" tableValues="0.000000 0.000000"/><feFuncA type="linear" slope="0.650980" intercept="0.000000"/></feComponentTransfer><feGaussianBlur stdDeviation="8.774545 8.774545"/></filter><filter id="fx1" x="-10%" y="-10%" width="120%" height="120%" filterUnits="userSpaceOnUse" primitiveUnits="userSpaceOnUse"><feComponentTransfer color-interpolation-filters="sRGB"><feFuncR type="discrete" tableValues="0.000000 0.000000"/><feFuncG type="discrete" tableValues="0.000000 0.000000"/><feFuncB type="discrete" tableValues="0.000000 0.000000"/><feFuncA type="linear" slope="0.650980" intercept="0.000000"/></feComponentTransfer><feGaussianBlur stdDeviation="8.790307 8.790307"/></filter><filter id="fx2" x="-10%" y="-10%" width="120%" height="120%" filterUnits="userSpaceOnUse" primitiveUnits="userSpaceOnUse"><feComponentTransfer color-interpolation-filters="sRGB"><feFuncR type="discrete" tableValues="0.000000 0.000000"/><feFuncG type="discrete" tableValues="0.000000 0.000000"/><feFuncB type="discrete" tableValues="0.000000 0.000000"/><feFuncA type="linear" slope="0.650980" intercept="0.000000"/></feComponentTransfer><feGaussianBlur stdDeviation="8.796678 8.782209"/></filter><filter id="fx3" x="-10%" y="-10%" width="120%" height="120%" filterUnits="userSpaceOnUse" primitiveUnits="userSpaceOnUse"><feComponentTransfer color-interpolation-filters="sRGB"><feFuncR type="discrete" tableValues="0.000000 0.000000"/><feFuncG type="discrete" tableValues="0.000000 0.000000"/><feFuncB type="discrete" tableValues="0.000000 0.000000"/><feFuncA type="linear" slope="0.650980" intercept="0.000000"/></feComponentTransfer><feGaussianBlur stdDeviation="8.777930 8.794351"/></filter><filter id="fx4" x="-10%" y="-10%" width="120%" height="120%" filterUnits="userSpaceOnUse" primitiveUnits="userSpaceOnUse"><feComponentTransfer color-interpolation-filters="sRGB"><feFuncR type="discrete" tableValues="0.000000 0.000000"/><feFuncG type="discrete" tableValues="0.000000 0.000000"/><feFuncB type="discrete" tableValues="0.000000 0.000000"/><feFuncA type="linear" slope="0.650980" intercept="0.000000"/></feComponentTransfer><feGaussianBlur stdDeviation="8.769444 8.784722"/></filter><clipPath id="clip5"><rect x="-22" y="990" width="1012" height="990"/></clipPath><clipPath id="clip6"><rect x="-22" y="990" width="1012" height="990"/></clipPath><clipPath id="clip7"><rect x="11.5708" y="52.0218" width="247.361" height="165.545"/></clipPath><clipPath id="clip8"><rect x="0" y="0" width="273" height="273"/></clipPath><clipPath id="clip9"><rect x="0" y="0" width="273" height="273"/></clipPath><clipPath id="clip10"><rect x="15.0374" y="68.0081" width="307.72" height="200.581"/></clipPath><clipPath id="clip11"><rect x="9.52319" y="42.5944" width="211.874" height="144.983"/></clipPath><clipPath id="clip12"><rect x="0" y="0" width="233" height="233"/></clipPath><clipPath id="clip13"><rect x="0" y="0" width="233" height="233"/></clipPath><clipPath id="clip14"><rect x="78.3743" y="8.07013" width="184.165" height="115.789"/></clipPath><clipPath id="clip15"><rect x="0" y="0" width="280" height="137"/></clipPath><clipPath id="clip16"><rect x="0" y="0" width="280" height="137"/></clipPath><clipPath id="clip17"><rect x="26" y="26" width="228" height="85"/></clipPath><clipPath id="clip18"><rect x="26" y="26" width="228" height="85"/></clipPath><clipPath id="clip19"><rect x="234" y="1670" width="591" height="218"/></clipPath><clipPath id="clip20"><rect x="234" y="1670" width="591" height="218"/></clipPath><clipPath id="clip21"><rect x="25.1135" y="8.04254" width="183.978" height="115.51"/></clipPath><clipPath id="clip22"><rect x="0" y="0" width="287" height="138"/></clipPath><clipPath id="clip23"><rect x="0" y="0" width="287" height="138"/></clipPath><clipPath id="clip24"><rect x="26" y="26" width="235" height="86"/></clipPath><clipPath id="clip25"><rect x="26" y="26" width="235" height="86"/></clipPath><clipPath id="clip26"><rect x="105" y="1670" width="612" height="221"/></clipPath><clipPath id="clip27"><rect x="105" y="1670" width="612" height="221"/></clipPath></defs><g clip-path="url(#clip5)" transform="translate(22 -990)"><g clip-path="url(#clip6)"><g clip-path="url(#clip7)" filter="url(#fx0)" transform="matrix(2.61172 0 0 2.61172 274 1002)"><g clip-path="url(#clip8)"><g clip-path="url(#clip9)" transform="matrix(1 0 0 1 -1.19209e-07 -9.17912e-06)"><g transform="matrix(1 0 0 1 -1.19209e-07 -9.17912e-06)"><g transform="matrix(1 0 0 1 -1.19209e-07 -9.17912e-06)"><g transform="matrix(1 0 0 1 -1.19209e-07 -9.17912e-06)"><path d="M205.412 136.165C204.726 136.165 203.812 136.165 203.127 136.165 203.127 136.165 203.127 136.165 203.127 136.165 203.127 124.967 197.642 114.683 188.729 108.284 179.587 101.885 167.932 100.285 157.419 103.942 148.735 87.0298 129.538 78.3454 111.255 82.6876 92.9719 87.0298 79.7167 103.484 79.7167 122.453 79.7167 122.453 79.7167 122.682 79.7167 122.91 67.1472 120.853 54.5776 126.11 46.8074 136.165 39.2657 146.449 37.8944 159.933 43.1508 171.36 48.6357 182.787 60.0625 190.328 72.6321 191.014L72.6321 191.243 205.184 191.243C220.267 191.243 232.608 178.902 232.608 163.818 232.608 148.735 220.496 136.165 205.412 136.165Z" fill="#333F50" fill-rule="nonzero" fill-opacity="0.64"/></g></g></g></g></g></g><g><g><g><path d="M800.756 1347.9C798.966 1347.9 796.578 1347.9 794.788 1347.9 794.788 1347.9 794.788 1347.9 794.788 1347.9 794.788 1318.66 780.463 1291.8 757.185 1275.08 733.31 1258.37 702.869 1254.19 675.413 1263.74 652.731 1219.57 602.594 1196.89 554.844 1208.23 507.094 1219.57 472.475 1262.55 472.475 1312.09 472.475 1312.09 472.475 1312.69 472.475 1313.28 439.647 1307.91 406.819 1321.64 386.525 1347.9 366.828 1374.76 363.247 1409.98 376.975 1439.82 391.3 1469.67 421.144 1489.36 453.972 1491.15L453.972 1491.75 800.16 1491.75C839.553 1491.75 871.785 1459.52 871.785 1420.12 871.785 1380.73 840.15 1347.9 800.756 1347.9Z" fill="#333F50" fill-rule="nonzero" fill-opacity="0.64"/></g></g></g><g clip-path="url(#clip10)" filter="url(#fx1)" transform="matrix(2.60704 0 0 2.60704 32 1015)"><g><g transform="matrix(1 0 0 1 0 1.57654e-05)"><g transform="matrix(1 0 0 1 0 1.57654e-05)"><g transform="matrix(1 0 0 1 0 1.57654e-05)"><g transform="matrix(1 0 0 1 0 1.57654e-05)"><path d="M260.773 170.094C259.875 170.094 258.678 170.094 257.781 170.094 257.781 170.094 257.781 170.094 257.781 170.094 257.781 155.43 250.598 141.963 238.927 133.583 226.956 125.204 211.693 123.109 197.927 127.897 186.554 105.751 161.416 94.3791 137.474 100.065 113.532 105.751 96.1747 127.299 96.1747 152.138 96.1747 152.138 96.1747 152.437 96.1747 152.737 79.7149 150.043 63.255 156.926 53.0798 170.094 43.2039 183.562 41.4083 201.218 48.2915 216.182 55.474 231.145 70.4375 241.021 86.8974 241.919L86.8974 242.218 260.474 242.218C280.226 242.218 296.386 226.058 296.386 206.306 296.386 186.554 280.525 170.094 260.773 170.094Z" fill="#262626" fill-rule="nonzero" fill-opacity="1"/></g></g></g></g></g></g><g><g><g><path d="M702.123 1448.72C699.782 1448.72 696.662 1448.72 694.321 1448.72 694.321 1448.72 694.321 1448.72 694.321 1448.72 694.321 1410.49 675.596 1375.38 645.168 1353.53 613.96 1331.69 574.169 1326.23 538.279 1338.71 508.631 1280.97 443.094 1251.33 380.677 1266.15 318.261 1280.97 273.008 1337.15 273.008 1401.91 273.008 1401.91 273.008 1402.69 273.008 1403.47 230.097 1396.45 187.186 1414.39 160.658 1448.72 134.912 1483.83 130.23 1529.86 148.175 1568.87 166.9 1607.88 205.911 1633.63 248.822 1635.97L248.822 1636.75 701.343 1636.75C752.837 1636.75 794.968 1594.62 794.968 1543.12 794.968 1491.63 753.617 1448.72 702.123 1448.72Z" fill="#262626" fill-rule="nonzero" fill-opacity="1"/></g></g></g><g clip-path="url(#clip11)" filter="url(#fx2)" transform="matrix(2.60515 0 0 2.60944 -22 1324)"><g clip-path="url(#clip12)"><g clip-path="url(#clip13)" transform="matrix(1 0 0 1 -4.17233e-07 -2.77758e-05)"><g transform="matrix(1 0 0 1 -4.17233e-07 -2.77758e-05)"><g transform="matrix(1 0 0 1 -4.17233e-07 -2.77758e-05)"><g transform="matrix(1 0 0 1 -4.17233e-07 -2.77758e-05)"><path d="M146.022 89.4434C145.462 89.4434 144.715 89.4434 144.155 89.4434 144.155 89.4434 144.155 89.4434 144.155 89.4434 144.155 80.2936 139.674 71.8908 132.391 66.6624 124.922 61.434 115.399 60.1269 106.809 63.1145 99.7135 49.2966 84.0282 42.2008 69.0899 45.7487 54.1515 49.2966 43.3212 62.7411 43.3212 78.2396 43.3212 78.2396 43.3212 78.4263 43.3212 78.6131 33.0511 76.9325 22.781 81.2273 16.4322 89.4434 10.2701 97.8462 9.14974 108.863 13.4445 118.2 17.926 127.536 27.2625 133.698 37.5326 134.258L37.5326 134.445 145.836 134.445C158.16 134.445 168.243 124.362 168.243 112.038 168.243 99.7135 158.347 89.4434 146.022 89.4434Z" fill="#8497B0" fill-rule="nonzero" fill-opacity="0.47" transform="matrix(1 0 0 1.00049 26.7635 26.7193)"/></g></g></g></g></g></g><g><g><g><path d="M380.41 233.013C378.951 233.013 377.005 233.013 375.546 233.013 375.546 233.013 375.546 233.013 375.546 233.013 375.546 209.177 363.871 187.286 344.899 173.666 325.44 160.045 300.631 156.64 278.254 164.423 259.769 128.425 218.906 109.94 179.99 119.182 141.073 128.425 112.858 163.45 112.858 203.826 112.858 203.826 112.858 204.312 112.858 204.799 86.1031 200.421 59.3479 211.609 42.8083 233.013 26.7552 254.904 23.8364 283.605 35.025 307.928 46.7 332.251 71.0229 348.304 97.7781 349.763L97.7781 350.25 379.924 350.25C412.03 350.25 438.299 323.981 438.299 291.875 438.299 259.769 412.516 233.013 380.41 233.013Z" fill="#8497B0" fill-rule="nonzero" fill-opacity="0.47" transform="matrix(1 0 0 1.00214 38.0002 1384)"/></g></g></g><g clip-path="url(#clip14)" filter="url(#fx3)" transform="matrix(2.61071 0 0 2.60584 174 1611)"><g clip-path="url(#clip15)"><g clip-path="url(#clip16)" transform="matrix(1 0 0 1 3.09944e-06 3.42429e-05)"><g clip-path="url(#clip17)" transform="matrix(1 0 0 1 3.09944e-06 3.42429e-05)"><g clip-path="url(#clip18)" transform="matrix(1 0 0 1 3.09944e-06 3.42429e-05)"><g transform="matrix(1 0 0 1 3.09944e-06 3.42429e-05)"><path d="M164.67 216.671C164.67 228.327 155.406 237.591 143.75 237.591 132.095 237.591 122.83 228.327 122.83 216.671 122.83 205.016 143.75 174.831 143.75 174.831 143.75 174.831 164.67 205.315 164.67 216.671Z" fill="#262626" fill-rule="nonzero" fill-opacity="1" transform="matrix(1 0 0 1.0042 26.7064 -141.112)"/><path d="M209.499 204.717C209.499 213.085 202.924 219.66 194.556 219.66 186.188 219.66 179.613 213.085 179.613 204.717 179.613 196.349 194.556 174.831 194.556 174.831 194.556 174.831 209.499 196.648 209.499 204.717Z" fill="#262626" fill-rule="nonzero" fill-opacity="1" transform="matrix(1 0 0 1.0042 26.7064 -141.112)"/><path d="M107.887 204.717C107.887 213.085 101.312 219.66 92.9445 219.66 84.5765 219.66 78.0017 213.085 78.0017 204.717 78.0017 196.349 92.9445 174.831 92.9445 174.831 92.9445 174.831 107.887 196.648 107.887 204.717Z" fill="#262626" fill-rule="nonzero" fill-opacity="1" transform="matrix(1 0 0 1.0042 26.7064 -141.112)"/><path d="M245.362 134.486C245.362 126.118 241.775 118.347 235.499 112.968 229.223 107.588 220.855 105.198 212.487 106.692L212.487 106.393C212.487 95.0365 207.108 83.9788 197.544 77.4039 188.28 70.5302 176.326 68.7371 165.268 72.3234 156.003 54.9897 135.98 46.024 116.853 50.8057 97.7262 55.2885 83.9788 72.3234 83.6799 92.0479 70.5302 89.6571 57.0817 94.7376 49.0125 105.198 40.6445 115.658 38.8514 129.704 44.2308 141.957 49.6103 154.21 61.2657 162.279 74.7142 163.176L218.166 163.176C233.706 162.279 245.362 149.727 245.362 134.486Z" fill="#262626" fill-rule="nonzero" fill-opacity="1" transform="matrix(1 0 0 1.0042 26.7064 -141.112)"/></g></g></g></g></g></g><g clip-path="url(#clip19)"><g clip-path="url(#clip20)"><g><path d="M429.907 565.667C429.907 596.096 405.72 620.283 375.291 620.283 344.862 620.283 320.675 596.096 320.675 565.667 320.675 535.238 375.291 456.435 375.291 456.435 375.291 456.435 429.907 536.018 429.907 565.667Z" fill="#262626" fill-rule="nonzero" fill-opacity="1" transform="matrix(1 0 0 1.00232 234 1233.56)"/><path d="M546.941 534.458C546.941 556.304 529.776 573.469 507.93 573.469 486.083 573.469 468.918 556.304 468.918 534.458 468.918 512.611 507.93 456.435 507.93 456.435 507.93 456.435 546.941 513.391 546.941 534.458Z" fill="#262626" fill-rule="nonzero" fill-opacity="1" transform="matrix(1 0 0 1.00232 234 1233.56)"/><path d="M281.663 534.458C281.663 556.304 264.498 573.469 242.652 573.469 220.805 573.469 203.64 556.304 203.64 534.458 203.64 512.611 242.652 456.435 242.652 456.435 242.652 456.435 281.663 513.391 281.663 534.458Z" fill="#262626" fill-rule="nonzero" fill-opacity="1" transform="matrix(1 0 0 1.00232 234 1233.56)"/><path d="M640.569 351.104C640.569 329.257 631.206 308.971 614.821 294.927 598.436 280.883 576.59 274.641 554.744 278.542L554.744 277.762C554.744 248.113 540.699 219.245 515.732 202.08 491.545 184.134 460.336 179.453 431.467 188.816 407.28 143.562 355.005 120.155 305.07 132.639 255.135 144.343 219.245 188.816 218.464 240.311 184.134 234.069 149.024 247.333 127.958 274.641 106.111 301.949 101.43 338.62 115.474 370.609 129.518 402.599 159.947 423.665 195.058 426.006L569.568 426.006C610.14 423.665 640.569 390.895 640.569 351.104Z" fill="#262626" fill-rule="nonzero" fill-opacity="1" transform="matrix(1 0 0 1.00232 234 1233.56)"/></g></g></g><g clip-path="url(#clip21)" filter="url(#fx4)" transform="matrix(2.61324 0 0 2.6087 46 1611)"><g clip-path="url(#clip22)"><g clip-path="url(#clip23)" transform="matrix(1 0 0 1 2.98023e-07 -5.96046e-07)"><g clip-path="url(#clip24)" transform="matrix(1 0 0 1 2.98023e-07 -5.96046e-07)"><g clip-path="url(#clip25)" transform="matrix(1 0 0 1 2.98023e-07 -5.96046e-07)"><g transform="matrix(1 0 0 1 2.98023e-07 -5.96046e-07)"><path d="M164.5 216.448C164.5 228.091 155.245 237.346 143.602 237.346 131.958 237.346 122.703 228.091 122.703 216.448 122.703 204.804 143.602 174.651 143.602 174.651 143.602 174.651 164.5 205.103 164.5 216.448Z" fill="#262626" fill-rule="nonzero" fill-opacity="1" transform="matrix(1 0 0 1.00169 -26.4993 -140.55)"/><path d="M209.283 204.506C209.283 212.865 202.714 219.433 194.355 219.433 185.996 219.433 179.428 212.865 179.428 204.506 179.428 196.146 194.355 174.651 194.355 174.651 194.355 174.651 209.283 196.445 209.283 204.506Z" fill="#262626" fill-rule="nonzero" fill-opacity="1" transform="matrix(1 0 0 1.00169 -26.4993 -140.55)"/><path d="M107.776 204.506C107.776 212.865 101.208 219.433 92.8486 219.433 84.4892 219.433 77.9212 212.865 77.9212 204.506 77.9212 196.146 92.8486 174.651 92.8486 174.651 92.8486 174.651 107.776 196.445 107.776 204.506Z" fill="#262626" fill-rule="nonzero" fill-opacity="1" transform="matrix(1 0 0 1.00169 -26.4993 -140.55)"/><path d="M245.108 134.347C245.108 125.987 241.526 118.225 235.256 112.851 228.987 107.477 220.627 105.089 212.268 106.582L212.268 106.283C212.268 94.9384 206.894 83.8921 197.341 77.3241 188.086 70.4575 176.144 68.6662 165.097 72.2488 155.842 54.9329 135.84 45.9765 116.732 50.7533 97.6254 55.2315 83.8921 72.2488 83.5936 91.9529 70.4575 89.5646 57.0228 94.6399 48.962 105.089 40.6026 115.538 38.8113 129.57 44.1852 141.811 49.5591 154.051 61.2025 162.112 74.6371 163.008L217.94 163.008C233.465 162.112 245.108 149.573 245.108 134.347Z" fill="#262626" fill-rule="nonzero" fill-opacity="1" transform="matrix(1 0 0 1.00169 -26.4993 -140.55)"/></g></g></g></g></g></g><g clip-path="url(#clip26)"><g clip-path="url(#clip27)"><g><path d="M429.858 565.603C429.858 596.028 405.674 620.213 375.248 620.213 344.823 620.213 320.638 596.028 320.638 565.603 320.638 535.177 375.248 456.383 375.248 456.383 375.248 456.383 429.858 535.957 429.858 565.603Z" fill="#262626" fill-rule="nonzero" fill-opacity="1" transform="matrix(1.00005 0 0 1 -32.9719 1234.62)"/><path d="M546.879 534.397C546.879 556.241 529.716 573.404 507.872 573.404 486.028 573.404 468.865 556.241 468.865 534.397 468.865 512.553 507.872 456.383 507.872 456.383 507.872 456.383 546.879 513.333 546.879 534.397Z" fill="#262626" fill-rule="nonzero" fill-opacity="1" transform="matrix(1.00005 0 0 1 -32.9719 1234.62)"/><path d="M281.631 534.397C281.631 556.241 264.468 573.404 242.624 573.404 220.78 573.404 203.617 556.241 203.617 534.397 203.617 512.553 242.624 456.383 242.624 456.383 242.624 456.383 281.631 513.333 281.631 534.397Z" fill="#262626" fill-rule="nonzero" fill-opacity="1" transform="matrix(1.00005 0 0 1 -32.9719 1234.62)"/><path d="M640.496 351.064C640.496 329.22 631.135 308.936 614.752 294.894 598.369 280.851 576.525 274.61 554.681 278.511L554.681 277.73C554.681 248.085 540.638 219.22 515.674 202.057 491.489 184.113 460.284 179.433 431.418 188.794 407.234 143.546 354.965 120.142 305.035 132.624 255.106 144.326 219.22 188.794 218.44 240.284 184.113 234.043 149.007 247.305 127.943 274.61 106.099 301.915 101.418 338.582 115.461 370.567 129.504 402.553 159.929 423.617 195.035 425.957L569.504 425.957C610.071 423.617 640.496 390.851 640.496 351.064Z" fill="#262626" fill-rule="nonzero" fill-opacity="1" transform="matrix(1.00005 0 0 1 -32.9719 1234.62)"/></g></g></g></g></g></svg>