<svg width="1026" height="999" xmlns="http://www.w3.org/2000/svg" xmlns:xlink="http://www.w3.org/1999/xlink" xml:space="preserve" overflow="hidden"><defs><filter id="fx0" x="-10%" y="-10%" width="120%" height="120%" filterUnits="userSpaceOnUse" primitiveUnits="userSpaceOnUse"><feComponentTransfer color-interpolation-filters="sRGB"><feFuncR type="discrete" tableValues="0.000000 0.000000"/><feFuncG type="discrete" tableValues="0.000000 0.000000"/><feFuncB type="discrete" tableValues="0.000000 0.000000"/><feFuncA type="linear" slope="0.650980" intercept="0.000000"/></feComponentTransfer><feGaussianBlur stdDeviation="8.774545 8.774545"/></filter><filter id="fx1" x="-10%" y="-10%" width="120%" height="120%" filterUnits="userSpaceOnUse" primitiveUnits="userSpaceOnUse"><feComponentTransfer color-interpolation-filters="sRGB"><feFuncR type="discrete" tableValues="0.000000 0.000000"/><feFuncG type="discrete" tableValues="0.000000 0.000000"/><feFuncB type="discrete" tableValues="0.000000 0.000000"/><feFuncA type="linear" slope="0.650980" intercept="0.000000"/></feComponentTransfer><feGaussianBlur stdDeviation="8.790307 8.780431"/></filter><filter id="fx2" x="-10%" y="-10%" width="120%" height="120%" filterUnits="userSpaceOnUse" primitiveUnits="userSpaceOnUse"><feComponentTransfer color-interpolation-filters="sRGB"><feFuncR type="discrete" tableValues="0.000000 0.000000"/><feFuncG type="discrete" tableValues="0.000000 0.000000"/><feFuncB type="discrete" tableValues="0.000000 0.000000"/><feFuncA type="linear" slope="0.650980" intercept="0.000000"/></feComponentTransfer><feGaussianBlur stdDeviation="8.782209 8.782209"/></filter><filter id="fx3" x="-10%" y="-10%" width="120%" height="120%" filterUnits="userSpaceOnUse" primitiveUnits="userSpaceOnUse"><feComponentTransfer color-interpolation-filters="sRGB"><feFuncR type="discrete" tableValues="0.000000 0.000000"/><feFuncG type="discrete" tableValues="0.000000 0.000000"/><feFuncB type="discrete" tableValues="0.000000 0.000000"/><feFuncA type="linear" slope="0.650980" intercept="0.000000"/></feComponentTransfer><feGaussianBlur stdDeviation="8.790307 8.772786"/></filter><clipPath id="clip4"><rect x="11.5707" y="52.0218" width="247.361" height="165.545"/></clipPath><clipPath id="clip5"><rect x="0" y="0" width="273" height="273"/></clipPath><clipPath id="clip6"><rect x="0" y="0" width="273" height="273"/></clipPath><clipPath id="clip7"><rect x="15.0372" y="68.0219" width="307.72" height="200.553"/></clipPath><clipPath id="clip8"><rect x="0" y="0" width="341" height="341"/></clipPath><clipPath id="clip9"><rect x="0" y="0" width="341" height="341"/></clipPath><clipPath id="clip10"><rect x="9.52698" y="42.5944" width="211.865" height="144.983"/></clipPath><clipPath id="clip11"><rect x="0" y="0" width="233" height="233"/></clipPath><clipPath id="clip12"><rect x="0" y="0" width="233" height="233"/></clipPath><clipPath id="clip13"><rect x="78.4827" y="8.05489" width="184.421" height="115.543"/></clipPath><clipPath id="clip14"><rect x="0" y="0" width="341" height="147"/></clipPath><clipPath id="clip15"><rect x="0" y="0" width="341" height="147"/></clipPath><clipPath id="clip16"><rect x="26" y="26" width="289" height="95"/></clipPath><clipPath id="clip17"><rect x="26" y="26" width="289" height="95"/></clipPath><clipPath id="clip18"><rect x="3106" y="674" width="750" height="245"/></clipPath><clipPath id="clip19"><rect x="3106" y="674" width="750" height="245"/></clipPath></defs><g transform="translate(-2970 0)"><g><g clip-path="url(#clip4)" filter="url(#fx0)" transform="matrix(2.61172 0 0 2.61172 3284 15)"><g clip-path="url(#clip5)"><g clip-path="url(#clip6)" transform="matrix(1 0 0 1 -3.3617e-05 5.96046e-08)"><g transform="matrix(1 0 0 1 -3.3617e-05 5.96046e-08)"><g transform="matrix(1 0 0 1 -3.3617e-05 5.96046e-08)"><g transform="matrix(1 0 0 1 -3.3617e-05 5.96046e-08)"><path d="M205.412 136.165C204.726 136.165 203.812 136.165 203.127 136.165 203.127 136.165 203.127 136.165 203.127 136.165 203.127 124.967 197.642 114.683 188.729 108.284 179.587 101.885 167.932 100.285 157.419 103.942 148.735 87.0298 129.538 78.3454 111.255 82.6876 92.9718 87.0298 79.7166 103.484 79.7166 122.453 79.7166 122.453 79.7166 122.682 79.7166 122.91 67.1471 120.853 54.5775 126.11 46.8073 136.165 39.2656 146.449 37.8943 159.933 43.1507 171.36 48.6356 182.787 60.0624 190.329 72.632 191.014L72.632 191.243 205.183 191.243C220.267 191.243 232.608 178.902 232.608 163.818 232.608 148.735 220.495 136.165 205.412 136.165Z" fill="#B4C7E7" fill-rule="nonzero" fill-opacity="0.64"/></g></g></g></g></g></g><g><g><g><path d="M3810.76 360.903C3808.97 360.903 3806.58 360.903 3804.79 360.903 3804.79 360.903 3804.79 360.903 3804.79 360.903 3804.79 331.656 3790.46 304.797 3767.18 288.084 3743.31 271.372 3712.87 267.194 3685.41 276.744 3662.73 232.575 3612.59 209.894 3564.84 221.234 3517.09 232.575 3482.48 275.55 3482.48 325.091 3482.48 325.091 3482.48 325.687 3482.48 326.284 3449.65 320.912 3416.82 334.641 3396.52 360.903 3376.83 387.762 3373.25 422.978 3386.98 452.822 3401.3 482.666 3431.14 502.362 3463.97 504.153L3463.97 504.75 3810.16 504.75C3849.55 504.75 3881.78 472.519 3881.78 433.125 3881.78 393.731 3850.15 360.903 3810.76 360.903Z" fill="#B4C7E7" fill-rule="nonzero" fill-opacity="0.64"/></g></g></g><g clip-path="url(#clip7)" filter="url(#fx1)" transform="matrix(2.60704 0 0 2.60997 3042 27)"><g clip-path="url(#clip8)" transform="matrix(1 0 0 1 0 -1.77636e-15)"><g clip-path="url(#clip9)" transform="matrix(1 0 0 1 -4.82798e-05 8.9407e-08)"><g transform="matrix(1 0 0 1 -4.82798e-05 8.9407e-08)"><g transform="matrix(1 0 0 1 -4.82798e-05 8.9407e-08)"><g transform="matrix(1 0 0 1 -4.82798e-05 8.9407e-08)"><path d="M234.029 143.35C233.131 143.35 231.934 143.35 231.036 143.35 231.036 143.35 231.036 143.35 231.036 143.35 231.036 128.686 223.854 115.219 212.182 106.839 200.212 98.4598 184.949 96.3649 171.182 101.153 159.81 79.0073 134.672 67.635 110.73 73.3212 86.7883 79.0073 69.4306 100.555 69.4306 125.394 69.4306 125.394 69.4306 125.693 69.4306 125.993 52.9708 123.299 36.5109 130.182 26.3358 143.35 16.4599 156.817 14.6642 174.474 21.5474 189.438 28.7299 204.401 43.6934 214.277 60.1533 215.175L60.1533 215.474 233.73 215.474C253.482 215.474 269.642 199.314 269.642 179.562 269.642 159.81 253.781 143.35 234.029 143.35Z" fill="#3B3838" fill-rule="nonzero" fill-opacity="1" transform="matrix(1 0 0 1.00021 26.744 26.714)"/></g></g></g></g></g></g><g><g><g><path d="M610.123 373.72C607.782 373.72 604.661 373.72 602.321 373.72 602.321 373.72 602.321 373.72 602.321 373.72 602.321 335.49 583.596 300.38 553.168 278.534 521.959 256.689 482.169 251.227 446.279 263.71 416.631 205.975 351.094 176.327 288.677 191.151 226.26 205.975 181.008 262.15 181.008 326.907 181.008 326.907 181.008 327.688 181.008 328.468 138.097 321.446 95.1854 339.391 68.6583 373.72 42.9115 408.829 38.2302 454.861 56.175 493.872 74.9 532.882 113.91 558.629 156.822 560.97L156.822 561.75 609.343 561.75C660.836 561.75 702.968 519.619 702.968 468.125 702.968 416.631 661.617 373.72 610.123 373.72Z" fill="#3B3838" fill-rule="nonzero" fill-opacity="1" transform="matrix(1 0 0 1.00134 3102 87)"/></g></g></g><g clip-path="url(#clip10)" filter="url(#fx2)" transform="matrix(2.60944 0 0 2.60944 3016 345)"><g clip-path="url(#clip11)" transform="translate(-2.27374e-13 0)"><g clip-path="url(#clip12)" transform="matrix(1 0 0 1 -1.7643e-05 7.33137e-06)"><g transform="matrix(1 0 0 1 -1.7643e-05 7.33137e-06)"><g transform="matrix(1 0 0 1 -1.7643e-05 7.33137e-06)"><g transform="matrix(1 0 0 1 -1.7643e-05 7.33137e-06)"><path d="M172.814 116.207C172.253 116.207 171.506 116.207 170.946 116.207 170.946 116.207 170.946 116.207 170.946 116.207 170.946 107.053 166.462 98.6457 159.176 93.4147 151.703 88.1837 142.175 86.8759 133.581 89.8651 126.482 76.0403 110.789 68.9411 95.8434 72.4907 80.8976 76.0403 70.062 89.4914 70.062 104.998 70.062 104.998 70.062 105.184 70.062 105.371 59.7868 103.69 49.5116 107.987 43.1597 116.207 36.9945 124.614 35.8736 135.636 40.1705 144.977 44.6542 154.319 53.9953 160.484 64.2705 161.044L64.2705 161.231 172.627 161.231C184.957 161.231 195.046 151.143 195.046 138.812 195.046 126.482 185.144 116.207 172.814 116.207Z" fill="#B4C7E7" fill-rule="nonzero" fill-opacity="0.47"/></g></g></g></g></g></g><g><g><g><path d="M3457.22 638.513C3455.76 638.513 3453.81 638.513 3452.35 638.513 3452.35 638.513 3452.35 638.513 3452.35 638.513 3452.35 614.625 3440.65 592.688 3421.64 579.038 3402.14 565.388 3377.27 561.975 3354.85 569.775 3336.32 533.7 3295.37 515.175 3256.37 524.438 3217.37 533.7 3189.1 568.8 3189.1 609.263 3189.1 609.263 3189.1 609.75 3189.1 610.237 3162.29 605.85 3135.47 617.062 3118.9 638.513 3102.81 660.45 3099.89 689.213 3111.1 713.588 3122.8 737.963 3147.17 754.05 3173.99 755.513L3173.99 756 3456.74 756C3488.91 756 3515.24 729.675 3515.24 697.5 3515.24 665.325 3489.4 638.513 3457.22 638.513Z" fill="#B4C7E7" fill-rule="nonzero" fill-opacity="0.47"/></g></g></g><g clip-path="url(#clip13)" filter="url(#fx3)" transform="matrix(2.60704 0 0 2.61224 3046 614)"><g clip-path="url(#clip14)" transform="matrix(1 0 0 1 0 2.84217e-14)"><g clip-path="url(#clip15)" transform="matrix(1 0 0 1 4.89354e-05 0)"><g clip-path="url(#clip16)" transform="matrix(1 0 0 1 4.89354e-05 0)"><g clip-path="url(#clip17)" transform="matrix(1 0 0 1 4.89354e-05 0)"><g transform="matrix(1 0 0 1 4.89354e-05 0)"><path d="M164.898 216.971C164.898 228.642 155.62 237.92 143.949 237.92 132.277 237.92 123 228.642 123 216.971 123 205.299 143.949 175.073 143.949 175.073 143.949 175.073 164.898 205.599 164.898 216.971Z" fill="#3B3838" fill-rule="nonzero" fill-opacity="1" transform="matrix(1 0 0 1.00095 26.7442 -140.866)"/><path d="M209.788 205C209.788 213.38 203.204 219.963 194.825 219.963 186.445 219.963 179.861 213.38 179.861 205 179.861 196.62 194.825 175.073 194.825 175.073 194.825 175.073 209.788 196.92 209.788 205Z" fill="#3B3838" fill-rule="nonzero" fill-opacity="1" transform="matrix(1 0 0 1.00095 26.7442 -140.866)"/><path d="M108.036 205C108.036 213.38 101.453 219.963 93.073 219.963 84.6934 219.963 78.1095 213.38 78.1095 205 78.1095 196.62 93.073 175.073 93.073 175.073 93.073 175.073 108.036 196.92 108.036 205Z" fill="#3B3838" fill-rule="nonzero" fill-opacity="1" transform="matrix(1 0 0 1.00095 26.7442 -140.866)"/><path d="M245.701 134.672C245.701 126.292 242.109 118.511 235.825 113.124 229.54 107.737 221.161 105.343 212.781 106.839L212.781 106.54C212.781 95.1679 207.394 84.0949 197.817 77.5109 188.54 70.6277 176.569 68.8321 165.496 72.4233 156.219 55.0657 136.168 46.0876 117.015 50.8759 97.8613 55.365 84.0949 72.4233 83.7956 92.1752 70.6277 89.781 57.1606 94.8686 49.0803 105.343 40.7007 115.818 38.9051 129.883 44.292 142.153 49.6788 154.423 61.3504 162.504 74.8175 163.401L218.467 163.401C234.029 162.504 245.701 149.934 245.701 134.672Z" fill="#3B3838" fill-rule="nonzero" fill-opacity="1" transform="matrix(1 0 0 1.00095 26.7442 -140.866)"/></g></g></g></g></g></g><g clip-path="url(#clip18)"><g clip-path="url(#clip19)"><g><path d="M429.895 565.651C429.895 596.079 405.708 620.266 375.28 620.266 344.852 620.266 320.666 596.079 320.666 565.651 320.666 535.223 375.28 456.422 375.28 456.422 375.28 456.422 429.895 536.003 429.895 565.651Z" fill="#3B3838" fill-rule="nonzero" fill-opacity="1" transform="matrix(1 0 0 1.00295 3106 236.301)"/><path d="M546.926 534.443C546.926 556.289 529.761 573.453 507.916 573.453 486.07 573.453 468.905 556.289 468.905 534.443 468.905 512.597 507.916 456.422 507.916 456.422 507.916 456.422 546.926 513.377 546.926 534.443Z" fill="#3B3838" fill-rule="nonzero" fill-opacity="1" transform="matrix(1 0 0 1.00295 3106 236.301)"/><path d="M281.655 534.443C281.655 556.289 264.491 573.453 242.645 573.453 220.799 573.453 203.634 556.289 203.634 534.443 203.634 512.597 242.645 456.422 242.645 456.422 242.645 456.422 281.655 513.377 281.655 534.443Z" fill="#3B3838" fill-rule="nonzero" fill-opacity="1" transform="matrix(1 0 0 1.00295 3106 236.301)"/><path d="M640.551 351.094C640.551 329.248 631.189 308.962 614.804 294.919 598.42 280.875 576.574 274.633 554.728 278.534L554.728 277.754C554.728 248.106 540.684 219.239 515.718 202.074 491.531 184.129 460.323 179.448 431.455 188.81 407.269 143.558 354.995 120.152 305.061 132.635 255.128 144.339 219.239 188.81 218.458 240.304 184.129 234.062 149.02 247.326 127.954 274.633 106.108 301.941 101.427 338.61 115.471 370.599 129.515 402.587 159.943 423.653 195.052 425.994L569.552 425.994C610.123 423.653 640.551 390.884 640.551 351.094Z" fill="#3B3838" fill-rule="nonzero" fill-opacity="1" transform="matrix(1 0 0 1.00295 3106 236.301)"/></g></g></g></g></g></svg>