<svg width="1008" height="1035" xmlns="http://www.w3.org/2000/svg" xmlns:xlink="http://www.w3.org/1999/xlink" xml:space="preserve" overflow="hidden"><defs><filter id="fx0" x="-10%" y="-10%" width="120%" height="120%" filterUnits="userSpaceOnUse" primitiveUnits="userSpaceOnUse"><feComponentTransfer color-interpolation-filters="sRGB"><feFuncR type="discrete" tableValues="0.000000 0.000000"/><feFuncG type="discrete" tableValues="0.000000 0.000000"/><feFuncB type="discrete" tableValues="0.000000 0.000000"/><feFuncA type="linear" slope="0.650980" intercept="0.000000"/></feComponentTransfer><feGaussianBlur stdDeviation="8.774545 8.774545"/></filter><filter id="fx1" x="-10%" y="-10%" width="120%" height="120%" filterUnits="userSpaceOnUse" primitiveUnits="userSpaceOnUse"><feComponentTransfer color-interpolation-filters="sRGB"><feFuncR type="discrete" tableValues="0.000000 0.000000"/><feFuncG type="discrete" tableValues="0.000000 0.000000"/><feFuncB type="discrete" tableValues="0.000000 0.000000"/><feFuncA type="linear" slope="0.650980" intercept="0.000000"/></feComponentTransfer><feGaussianBlur stdDeviation="8.790307 8.780431"/></filter><filter id="fx2" x="-10%" y="-10%" width="120%" height="120%" filterUnits="userSpaceOnUse" primitiveUnits="userSpaceOnUse"><feComponentTransfer color-interpolation-filters="sRGB"><feFuncR type="discrete" tableValues="0.000000 0.000000"/><feFuncG type="discrete" tableValues="0.000000 0.000000"/><feFuncB type="discrete" tableValues="0.000000 0.000000"/><feFuncA type="linear" slope="0.650980" intercept="0.000000"/></feComponentTransfer><feGaussianBlur stdDeviation="8.782209 8.782209"/></filter><filter id="fx3" x="-10%" y="-10%" width="120%" height="120%" filterUnits="userSpaceOnUse" primitiveUnits="userSpaceOnUse"><feComponentTransfer color-interpolation-filters="sRGB"><feFuncR type="discrete" tableValues="0.000000 0.000000"/><feFuncG type="discrete" tableValues="0.000000 0.000000"/><feFuncB type="discrete" tableValues="0.000000 0.000000"/><feFuncA type="linear" slope="0.650980" intercept="0.000000"/></feComponentTransfer><feGaussianBlur stdDeviation="8.776595 8.776595"/></filter><filter id="fx4" x="-10%" y="-10%" width="120%" height="120%" filterUnits="userSpaceOnUse" primitiveUnits="userSpaceOnUse"><feComponentTransfer color-interpolation-filters="sRGB"><feFuncR type="discrete" tableValues="0.000000 0.000000"/><feFuncG type="discrete" tableValues="0.000000 0.000000"/><feFuncB type="discrete" tableValues="0.000000 0.000000"/><feFuncA type="linear" slope="0.650980" intercept="0.000000"/></feComponentTransfer><feGaussianBlur stdDeviation="8.790785 8.814103"/></filter><filter id="fx5" x="-10%" y="-10%" width="120%" height="120%" filterUnits="userSpaceOnUse" primitiveUnits="userSpaceOnUse"><feComponentTransfer color-interpolation-filters="sRGB"><feFuncR type="discrete" tableValues="0.000000 0.000000"/><feFuncG type="discrete" tableValues="0.000000 0.000000"/><feFuncB type="discrete" tableValues="0.000000 0.000000"/><feFuncA type="linear" slope="0.650980" intercept="0.000000"/></feComponentTransfer><feGaussianBlur stdDeviation="8.814103 8.814103"/></filter><clipPath id="clip6"><rect x="11.5707" y="52.0218" width="247.361" height="165.545"/></clipPath><clipPath id="clip7"><rect x="0" y="0" width="273" height="273"/></clipPath><clipPath id="clip8"><rect x="0" y="0" width="273" height="273"/></clipPath><clipPath id="clip9"><rect x="15.0374" y="68.0219" width="307.72" height="200.553"/></clipPath><clipPath id="clip10"><rect x="0" y="0" width="341" height="341"/></clipPath><clipPath id="clip11"><rect x="0" y="0" width="341" height="341"/></clipPath><clipPath id="clip12"><rect x="9.52698" y="42.5945" width="211.865" height="144.983"/></clipPath><clipPath id="clip13"><rect x="24.0693" y="18.8033" width="131.649" height="142.181"/></clipPath><clipPath id="clip14"><rect x="0" y="0" width="180" height="180"/></clipPath><clipPath id="clip15"><rect x="0" y="0" width="180" height="180"/></clipPath><clipPath id="clip16"><rect x="17.4912" y="13.6674" width="109.805" height="117.452"/></clipPath><clipPath id="clip17"><rect x="0" y="0" width="145" height="145"/></clipPath><clipPath id="clip18"><rect x="0" y="0" width="145" height="145"/></clipPath><clipPath id="clip19"><rect x="17.4656" y="13.6674" width="109.856" height="117.452"/></clipPath><clipPath id="clip20"><rect x="0" y="0" width="145" height="145"/></clipPath><clipPath id="clip21"><rect x="0" y="0" width="145" height="145"/></clipPath></defs><g transform="translate(-1980 -990)"><g><g clip-path="url(#clip6)" filter="url(#fx0)" transform="matrix(2.61172 0 0 2.61172 2275 1016)"><g clip-path="url(#clip7)"><g clip-path="url(#clip8)" transform="matrix(1 0 0 1 -4.26173e-05 -3.33786e-06)"><g transform="matrix(1 0 0 1 -4.26173e-05 -3.33786e-06)"><g transform="matrix(1 0 0 1 -4.26173e-05 -3.33786e-06)"><g transform="matrix(1 0 0 1 -4.26173e-05 -3.33786e-06)"><path d="M205.412 136.165C204.726 136.165 203.812 136.165 203.127 136.165 203.127 136.165 203.127 136.165 203.127 136.165 203.127 124.967 197.642 114.683 188.729 108.284 179.587 101.885 167.932 100.285 157.419 103.942 148.735 87.0298 129.538 78.3454 111.255 82.6876 92.9718 87.0298 79.7167 103.484 79.7167 122.453 79.7167 122.453 79.7167 122.682 79.7167 122.91 67.1472 120.853 54.5776 126.11 46.8074 136.165 39.2656 146.449 37.8944 159.933 43.1508 171.36 48.6357 182.787 60.0625 190.329 72.632 191.014L72.632 191.243 205.184 191.243C220.267 191.243 232.608 178.902 232.608 163.818 232.608 148.735 220.495 136.165 205.412 136.165Z" fill="#FFFFFF" fill-rule="nonzero" fill-opacity="0.64"/></g></g></g></g></g></g><g><g><g><path d="M2801.76 1361.9C2799.97 1361.9 2797.58 1361.9 2795.79 1361.9 2795.79 1361.9 2795.79 1361.9 2795.79 1361.9 2795.79 1332.66 2781.46 1305.8 2758.18 1289.08 2734.31 1272.37 2703.87 1268.19 2676.41 1277.74 2653.73 1233.57 2603.59 1210.89 2555.84 1222.23 2508.09 1233.57 2473.48 1276.55 2473.48 1326.09 2473.48 1326.09 2473.48 1326.69 2473.48 1327.28 2440.65 1321.91 2407.82 1335.64 2387.52 1361.9 2367.83 1388.76 2364.25 1423.98 2377.98 1453.82 2392.3 1483.67 2422.14 1503.36 2454.97 1505.15L2454.97 1505.75 2801.16 1505.75C2840.55 1505.75 2872.78 1473.52 2872.78 1434.12 2872.78 1394.73 2841.15 1361.9 2801.76 1361.9Z" fill="#FFFFFF" fill-rule="nonzero" fill-opacity="0.64"/></g></g></g><g clip-path="url(#clip9)" filter="url(#fx1)" transform="matrix(2.60704 0 0 2.60997 2033 1028)"><g clip-path="url(#clip10)" transform="matrix(1 0 0 1 0 -5.68434e-14)"><g clip-path="url(#clip11)" transform="matrix(1 0 0 1 -5.46575e-05 -8.46386e-06)"><g transform="matrix(1 0 0 1 -5.46575e-05 -8.46386e-06)"><g transform="matrix(1 0 0 1 -5.46575e-05 -8.46386e-06)"><g transform="matrix(1 0 0 1 -5.46575e-05 -8.46386e-06)"><path d="M234.029 143.35C233.131 143.35 231.934 143.35 231.036 143.35 231.036 143.35 231.036 143.35 231.036 143.35 231.036 128.686 223.854 115.219 212.182 106.839 200.212 98.4598 184.949 96.3649 171.182 101.153 159.81 79.0073 134.672 67.635 110.73 73.3212 86.7883 79.0073 69.4306 100.555 69.4306 125.394 69.4306 125.394 69.4306 125.693 69.4306 125.993 52.9708 123.299 36.5109 130.182 26.3358 143.35 16.4599 156.817 14.6642 174.474 21.5474 189.438 28.7299 204.401 43.6934 214.277 60.1533 215.175L60.1533 215.474 233.73 215.474C253.482 215.474 269.642 199.314 269.642 179.562 269.642 159.81 253.781 143.35 234.029 143.35Z" fill="#9DC3E6" fill-rule="nonzero" fill-opacity="1" transform="matrix(1 0 0 1.00021 26.744 26.714)"/></g></g></g></g></g></g><g><g><g><path d="M610.123 373.72C607.782 373.72 604.661 373.72 602.321 373.72 602.321 373.72 602.321 373.72 602.321 373.72 602.321 335.49 583.596 300.38 553.168 278.534 521.959 256.689 482.169 251.227 446.279 263.71 416.631 205.975 351.094 176.327 288.677 191.151 226.26 205.975 181.008 262.15 181.008 326.907 181.008 326.907 181.008 327.688 181.008 328.468 138.097 321.446 95.1854 339.391 68.6583 373.72 42.9115 408.829 38.2302 454.861 56.175 493.872 74.9 532.882 113.91 558.629 156.822 560.97L156.822 561.75 609.343 561.75C660.836 561.75 702.968 519.619 702.968 468.125 702.968 416.631 661.617 373.72 610.123 373.72Z" fill="#9DC3E6" fill-rule="nonzero" fill-opacity="1" transform="matrix(1 0 0 1.00134 2093 1088)"/></g></g></g><g clip-path="url(#clip12)" filter="url(#fx2)" transform="matrix(2.60944 0 0 2.60944 1982 1346)"><g transform="translate(-1.13687e-13 -1.13687e-13)"><g transform="matrix(1 0 0 1 2.06232e-05 2.51532e-05)"><g transform="matrix(1 0 0 1 2.06232e-05 2.51532e-05)"><g transform="matrix(1 0 0 1 2.06232e-05 2.51532e-05)"><g transform="matrix(1 0 0 1 2.06232e-05 2.51532e-05)"><path d="M172.814 116.207C172.253 116.207 171.506 116.207 170.946 116.207 170.946 116.207 170.946 116.207 170.946 116.207 170.946 107.053 166.462 98.6457 159.176 93.4147 151.703 88.1837 142.175 86.876 133.581 89.8651 126.482 76.0403 110.789 68.9411 95.8434 72.4907 80.8977 76.0403 70.062 89.4915 70.062 104.998 70.062 104.998 70.062 105.184 70.062 105.371 59.7868 103.69 49.5116 107.987 43.1597 116.207 36.9946 124.614 35.8737 135.636 40.1706 144.977 44.6543 154.319 53.9954 160.484 64.2705 161.044L64.2705 161.231 172.627 161.231C184.957 161.231 195.046 151.143 195.046 138.812 195.046 126.482 185.144 116.207 172.814 116.207Z" fill="#FFFFFF" fill-rule="nonzero" fill-opacity="0.47"/></g></g></g></g></g></g><g><g><g><path d="M2423.23 1639.51C2421.76 1639.51 2419.81 1639.51 2418.35 1639.51 2418.35 1639.51 2418.35 1639.51 2418.35 1639.51 2418.35 1615.62 2406.65 1593.69 2387.64 1580.04 2368.14 1566.39 2343.27 1562.97 2320.85 1570.77 2302.32 1534.7 2261.38 1516.17 2222.38 1525.44 2183.38 1534.7 2155.1 1569.8 2155.1 1610.26 2155.1 1610.26 2155.1 1610.75 2155.1 1611.24 2128.29 1606.85 2101.47 1618.06 2084.9 1639.51 2068.81 1661.45 2065.89 1690.21 2077.1 1714.59 2088.8 1738.96 2113.17 1755.05 2139.99 1756.51L2139.99 1757 2422.74 1757C2454.91 1757 2481.24 1730.68 2481.24 1698.5 2481.24 1666.32 2455.4 1639.51 2423.23 1639.51Z" fill="#FFFFFF" fill-rule="nonzero" fill-opacity="0.47"/></g></g></g><g clip-path="url(#clip13)" filter="url(#fx3)" transform="matrix(2.61111 0 0 2.61111 2251 1554)"><g clip-path="url(#clip14)" transform="translate(1.13687e-13 0)"><g clip-path="url(#clip15)" transform="matrix(1 0 0 1 -1.23084e-05 -1.42455e-05)"><g transform="matrix(1 0 0 1 -1.23084e-05 -1.42455e-05)"><g transform="matrix(1 0 0 1 -1.23084e-05 -1.42455e-05)"><g transform="matrix(1 0 0 1 -1.23084e-05 -1.42455e-05)"><path d="M127.677 108.72 121.753 105.297 126.361 104.112C127.809 103.717 128.599 102.269 128.204 100.952 127.809 99.6358 126.361 98.7142 125.044 99.1092L115.302 101.742 111.484 99.5041 123.333 96.3446C124.781 95.9496 125.571 94.5015 125.176 93.185 124.781 91.8685 123.333 90.947 122.016 91.3419L105.033 95.818 100.031 92.9217C100.294 92.0001 100.426 91.0786 100.426 90.1571 100.426 89.2355 100.294 88.1823 100.031 87.3924L105.033 84.4962 122.016 88.9722C122.279 88.9722 122.411 89.1039 122.674 89.1039 123.859 89.1039 124.912 88.314 125.176 87.1291 125.571 85.681 124.781 84.2329 123.333 83.9696L111.484 80.81 115.302 78.572 125.044 81.2049C125.307 81.2049 125.439 81.3366 125.702 81.3366 126.887 81.3366 127.94 80.5467 128.204 79.3619 128.599 77.9137 127.809 76.4656 126.361 76.2023L121.753 75.0174 127.677 71.5946C128.993 70.8047 129.388 69.2249 128.599 68.04 127.809 66.7236 126.229 66.3286 125.044 67.1185L119.12 70.5414 120.305 65.9337C120.7 64.4855 119.91 63.0374 118.462 62.7741 117.013 62.3791 115.565 63.169 115.302 64.6172L112.669 74.3592 108.851 76.5972 112.011 64.7488C112.406 63.3007 111.616 61.8525 110.168 61.5892 108.72 61.1943 107.271 61.9842 107.008 63.4323L102.532 80.415 97.5294 83.3113C96.2129 81.9948 94.5015 80.9416 92.6584 80.5467L92.6584 74.7541 105.033 62.3791C106.087 61.3259 106.087 59.7462 105.033 58.693 103.98 57.6398 102.4 57.6398 101.347 58.693L92.5267 66.4603 92.5267 62.1158 99.6358 55.0068C100.689 53.9536 100.689 52.3738 99.6358 51.3206 98.5826 50.2674 97.0028 50.2674 95.9496 51.3206L92.5267 54.6119 92.5267 47.7661C92.5267 46.318 91.3419 45.1331 89.8938 45.1331 88.4456 45.1331 87.2608 46.318 87.2608 47.7661L87.2608 54.6119 83.8379 51.189C82.7847 50.1358 81.2049 50.1358 80.1517 51.189 79.0986 52.2422 79.0986 53.822 80.1517 54.8751L87.2608 61.9842 87.2608 66.3286 78.572 57.6398C77.5188 56.5866 75.939 56.5866 74.8858 57.6398 73.8326 58.693 73.8326 60.2728 74.8858 61.3259L87.2608 73.701 87.2608 79.4935C85.4177 80.0201 83.7063 80.9416 82.3898 82.2581L77.3871 79.3619 72.7794 62.6424C72.3845 61.1943 70.9363 60.4044 69.6198 60.7994 68.1717 61.1943 67.3818 62.6424 67.7767 63.9589L70.9363 75.8073 67.1185 73.5693 64.4855 63.8273C64.0906 62.3791 62.6424 61.5892 61.3259 61.9842 59.8778 62.3791 59.0879 63.8273 59.4829 65.1438L60.6677 69.7515 54.7435 66.3286C53.427 65.5387 51.8472 66.0653 51.189 67.2501 50.3991 68.5666 50.9257 70.1464 52.1105 70.8047L58.0347 74.2275 53.427 75.4124C51.9789 75.8073 51.189 77.2555 51.5839 78.572 51.8472 79.7568 52.9004 80.5467 54.0853 80.5467 54.3486 80.5467 54.4802 80.5467 54.7435 80.415L64.4855 77.7821 68.3033 80.0201 56.4549 83.1797C55.0068 83.5746 54.2169 85.0228 54.6119 86.3392 54.8752 87.5241 55.9283 88.314 57.1132 88.314 57.3765 88.314 57.5081 88.314 57.7714 88.1823L74.7541 83.7063 79.7568 86.6025C79.4935 87.919 79.3619 88.9722 79.3619 89.8938 79.3619 90.8153 79.4935 91.8685 79.7568 92.6584L74.7541 95.5547 57.7714 91.0786C56.3233 90.6837 54.8752 91.4736 54.6119 92.9217 54.3486 94.3698 55.0068 95.818 56.4549 96.0813L68.3033 99.2408 64.4855 101.479 54.7435 98.8459C53.2954 98.451 51.8472 99.2408 51.5839 100.689 51.3206 102.137 51.9789 103.585 53.427 103.849L58.0347 105.033 52.1105 108.456C50.794 109.246 50.3991 110.826 51.189 112.011 51.7156 112.801 52.5055 113.327 53.427 113.327 53.822 113.327 54.3486 113.196 54.7435 112.932L60.6677 109.509 59.4829 114.117C59.0879 115.565 59.8778 117.013 61.3259 117.277 61.5892 117.277 61.7209 117.408 61.9842 117.408 63.169 117.408 64.2222 116.619 64.4855 115.434L67.1185 105.692 70.9363 103.454 67.7767 115.302C67.3818 116.75 68.1717 118.198 69.6198 118.462 69.8831 118.462 70.0148 118.593 70.2781 118.593 71.4629 118.593 72.5161 117.803 72.7794 116.619L77.2555 99.6358 82.2581 96.7395C83.5746 98.056 85.2861 99.1092 87.1291 99.5041L87.1291 105.297 74.7541 117.672C73.701 118.725 73.701 120.305 74.7541 121.358 75.8073 122.411 77.3871 122.411 78.4403 121.358L87.1291 112.669 87.1291 117.013 80.0201 124.122C78.9669 125.176 78.9669 126.755 80.0201 127.809 81.0733 128.862 82.6531 128.862 83.7063 127.809L87.1291 124.386 87.1291 132.021C87.1291 133.47 88.314 134.654 89.7621 134.654 91.2103 134.654 92.3951 133.47 92.3951 132.021L92.3951 125.176 95.818 128.599C96.4762 129.125 97.1345 129.388 97.7927 129.388 98.451 129.388 99.1092 129.125 99.6358 128.599 100.689 127.545 100.689 125.966 99.6358 124.912L92.5267 117.803 92.5267 113.459 101.216 122.148C101.742 122.543 102.4 122.806 103.059 122.806 103.717 122.806 104.375 122.543 104.902 122.016 105.955 120.963 105.955 119.383 104.902 118.33L92.5267 105.955 92.5267 100.162C94.3698 99.6358 96.0813 98.7142 97.3978 97.3978L102.4 100.294 107.008 117.145C107.271 118.33 108.325 119.12 109.509 119.12 109.773 119.12 109.904 119.12 110.168 118.988 111.616 118.593 112.406 117.145 112.011 115.829L108.851 103.98 112.669 106.218 115.302 115.96C115.565 117.145 116.619 117.935 117.803 117.935 118.067 117.935 118.198 117.935 118.462 117.803 119.91 117.408 120.7 115.96 120.305 114.644L119.12 110.036 125.044 113.459C125.439 113.722 125.966 113.854 126.361 113.854 127.282 113.854 128.204 113.327 128.599 112.537 129.388 110.958 128.993 109.378 127.677 108.72Z" fill="#FFFFFF" fill-rule="nonzero" fill-opacity="1"/></g></g></g></g></g></g><g><g><g><path d="M2574.66 1828.16 2559.19 1819.22 2571.22 1816.12C2575 1815.09 2577.06 1811.31 2576.03 1807.87 2575 1804.44 2571.22 1802.03 2567.78 1803.06L2542.34 1809.94 2532.38 1804.09 2563.31 1795.84C2567.09 1794.81 2569.16 1791.03 2568.12 1787.59 2567.09 1784.16 2563.31 1781.75 2559.88 1782.78L2515.53 1794.47 2502.47 1786.91C2503.16 1784.5 2503.5 1782.09 2503.5 1779.69 2503.5 1777.28 2503.16 1774.53 2502.47 1772.47L2515.53 1764.91 2559.88 1776.59C2560.56 1776.59 2560.91 1776.94 2561.59 1776.94 2564.69 1776.94 2567.44 1774.87 2568.12 1771.78 2569.16 1768 2567.09 1764.22 2563.31 1763.53L2532.38 1755.28 2542.34 1749.44 2567.78 1756.31C2568.47 1756.31 2568.81 1756.66 2569.5 1756.66 2572.59 1756.66 2575.34 1754.59 2576.03 1751.5 2577.06 1747.72 2575 1743.94 2571.22 1743.25L2559.19 1740.16 2574.66 1731.22C2578.09 1729.16 2579.12 1725.03 2577.06 1721.94 2575 1718.5 2570.88 1717.47 2567.78 1719.53L2552.31 1728.47 2555.41 1716.44C2556.44 1712.66 2554.38 1708.87 2550.59 1708.19 2546.81 1707.16 2543.03 1709.22 2542.34 1713L2535.47 1738.44 2525.5 1744.28 2533.75 1713.34C2534.78 1709.56 2532.72 1705.78 2528.94 1705.09 2525.16 1704.06 2521.38 1706.12 2520.69 1709.91L2509 1754.25 2495.94 1761.81C2492.5 1758.37 2488.03 1755.62 2483.22 1754.59L2483.22 1739.47 2515.53 1707.16C2518.28 1704.41 2518.28 1700.28 2515.53 1697.53 2512.78 1694.78 2508.66 1694.78 2505.91 1697.53L2482.88 1717.81 2482.88 1706.47 2501.44 1687.91C2504.19 1685.16 2504.19 1681.03 2501.44 1678.28 2498.69 1675.53 2494.56 1675.53 2491.81 1678.28L2482.88 1686.87 2482.88 1669C2482.88 1665.22 2479.78 1662.12 2476 1662.12 2472.22 1662.12 2469.12 1665.22 2469.12 1669L2469.12 1686.87 2460.19 1677.94C2457.44 1675.19 2453.31 1675.19 2450.56 1677.94 2447.81 1680.69 2447.81 1684.81 2450.56 1687.56L2469.12 1706.12 2469.12 1717.47 2446.44 1694.78C2443.69 1692.03 2439.56 1692.03 2436.81 1694.78 2434.06 1697.53 2434.06 1701.66 2436.81 1704.41L2469.12 1736.72 2469.12 1751.84C2464.31 1753.22 2459.84 1755.62 2456.41 1759.06L2443.34 1751.5 2431.31 1707.84C2430.28 1704.06 2426.5 1702 2423.06 1703.03 2419.28 1704.06 2417.22 1707.84 2418.25 1711.28L2426.5 1742.22 2416.53 1736.37 2409.66 1710.94C2408.62 1707.16 2404.84 1705.09 2401.41 1706.12 2397.62 1707.16 2395.56 1710.94 2396.59 1714.37L2399.69 1726.41 2384.22 1717.47C2380.78 1715.41 2376.66 1716.78 2374.94 1719.87 2372.88 1723.31 2374.25 1727.44 2377.34 1729.16L2392.81 1738.09 2380.78 1741.19C2377 1742.22 2374.94 1746 2375.97 1749.44 2376.66 1752.53 2379.41 1754.59 2382.5 1754.59 2383.19 1754.59 2383.53 1754.59 2384.22 1754.25L2409.66 1747.37 2419.62 1753.22 2388.69 1761.47C2384.91 1762.5 2382.84 1766.28 2383.88 1769.72 2384.56 1772.81 2387.31 1774.87 2390.41 1774.87 2391.09 1774.87 2391.44 1774.87 2392.12 1774.53L2436.47 1762.84 2449.53 1770.41C2448.84 1773.84 2448.5 1776.59 2448.5 1779 2448.5 1781.41 2448.84 1784.16 2449.53 1786.22L2436.47 1793.78 2392.12 1782.09C2388.34 1781.06 2384.56 1783.12 2383.88 1786.91 2383.19 1790.69 2384.91 1794.47 2388.69 1795.16L2419.62 1803.41 2409.66 1809.25 2384.22 1802.37C2380.44 1801.34 2376.66 1803.41 2375.97 1807.19 2375.28 1810.97 2377 1814.75 2380.78 1815.44L2392.81 1818.53 2377.34 1827.47C2373.91 1829.53 2372.88 1833.66 2374.94 1836.75 2376.31 1838.81 2378.38 1840.19 2380.78 1840.19 2381.81 1840.19 2383.19 1839.84 2384.22 1839.16L2399.69 1830.22 2396.59 1842.25C2395.56 1846.03 2397.62 1849.81 2401.41 1850.5 2402.09 1850.5 2402.44 1850.84 2403.12 1850.84 2406.22 1850.84 2408.97 1848.78 2409.66 1845.69L2416.53 1820.25 2426.5 1814.41 2418.25 1845.34C2417.22 1849.12 2419.28 1852.91 2423.06 1853.59 2423.75 1853.59 2424.09 1853.94 2424.78 1853.94 2427.88 1853.94 2430.62 1851.87 2431.31 1848.78L2443 1804.44 2456.06 1796.87C2459.5 1800.31 2463.97 1803.06 2468.78 1804.09L2468.78 1819.22 2436.47 1851.53C2433.72 1854.28 2433.72 1858.41 2436.47 1861.16 2439.22 1863.91 2443.34 1863.91 2446.09 1861.16L2468.78 1838.47 2468.78 1849.81 2450.22 1868.37C2447.47 1871.12 2447.47 1875.25 2450.22 1878 2452.97 1880.75 2457.09 1880.75 2459.84 1878L2468.78 1869.06 2468.78 1889C2468.78 1892.78 2471.88 1895.87 2475.66 1895.87 2479.44 1895.87 2482.53 1892.78 2482.53 1889L2482.53 1871.12 2491.47 1880.06C2493.19 1881.44 2494.91 1882.12 2496.62 1882.12 2498.34 1882.12 2500.06 1881.44 2501.44 1880.06 2504.19 1877.31 2504.19 1873.19 2501.44 1870.44L2482.88 1851.87 2482.88 1840.53 2505.56 1863.22C2506.94 1864.25 2508.66 1864.94 2510.38 1864.94 2512.09 1864.94 2513.81 1864.25 2515.19 1862.87 2517.94 1860.12 2517.94 1856 2515.19 1853.25L2482.88 1820.94 2482.88 1805.81C2487.69 1804.44 2492.16 1802.03 2495.59 1798.59L2508.66 1806.16 2520.69 1850.16C2521.38 1853.25 2524.12 1855.31 2527.22 1855.31 2527.91 1855.31 2528.25 1855.31 2528.94 1854.97 2532.72 1853.94 2534.78 1850.16 2533.75 1846.72L2525.5 1815.78 2535.47 1821.62 2542.34 1847.06C2543.03 1850.16 2545.78 1852.22 2548.88 1852.22 2549.56 1852.22 2549.91 1852.22 2550.59 1851.87 2554.38 1850.84 2556.44 1847.06 2555.41 1843.62L2552.31 1831.59 2567.78 1840.53C2568.81 1841.22 2570.19 1841.56 2571.22 1841.56 2573.62 1841.56 2576.03 1840.19 2577.06 1838.12 2579.12 1834 2578.09 1829.87 2574.66 1828.16Z" fill="#FFFFFF" fill-rule="nonzero" fill-opacity="1"/></g></g></g><g clip-path="url(#clip16)" filter="url(#fx4)" transform="matrix(2.6069 0 0 2.6 2518 1579)"><g clip-path="url(#clip17)"><g clip-path="url(#clip18)" transform="matrix(1 0 0 1 -2.57492e-05 2.49445e-05)"><g transform="matrix(1 0 0 1 -2.57492e-05 2.49445e-05)"><g transform="matrix(1 0 0 1 -2.57492e-05 2.49445e-05)"><g transform="matrix(1 0 0 1 -2.57492e-05 2.49445e-05)"><path d="M72.8281 59.155 68.5552 56.6863 71.8785 55.8317C72.923 55.5468 73.4927 54.5024 73.2079 53.5528 72.923 52.6033 71.8785 51.9387 70.929 52.2235L63.9026 54.1226 61.149 52.5084 69.6947 50.2295C70.7391 49.9447 71.3088 48.9002 71.024 47.9507 70.7391 47.0012 69.6947 46.3365 68.7451 46.6214L56.4963 49.8497 52.8882 47.7608C53.0781 47.0961 53.173 46.4315 53.173 45.7668 53.173 45.1021 53.0781 44.3425 52.8882 43.7728L56.4963 41.6839 68.7451 44.9122C68.935 44.9122 69.03 45.0072 69.2199 45.0072 70.0745 45.0072 70.8341 44.4375 71.024 43.5829 71.3088 42.5384 70.7391 41.494 69.6947 41.3041L61.149 39.0252 63.9026 37.411 70.929 39.3101C71.1189 39.3101 71.2139 39.405 71.4038 39.405 72.2584 39.405 73.018 38.8353 73.2079 37.9807 73.4927 36.9363 72.923 35.8918 71.8785 35.7019L68.5552 34.8473 72.8281 32.3786C73.7776 31.8089 74.0624 30.6694 73.4927 29.8149 72.923 28.8654 71.7836 28.5805 70.929 29.1502L66.6562 31.619 67.5108 28.2957C67.7956 27.2512 67.2259 26.2067 66.1814 26.0168 65.137 25.732 64.0925 26.3017 63.9026 27.3461L62.0036 34.3726 59.25 35.9868 61.5288 27.4411C61.8137 26.3966 61.2439 25.3521 60.1995 25.1622 59.155 24.8774 58.1105 25.4471 57.9206 26.4916L54.6923 38.7404 51.0841 40.8293C50.1346 39.8798 48.9002 39.1202 47.5709 38.8353L47.5709 34.6574 56.4963 25.732C57.256 24.9723 57.256 23.8329 56.4963 23.0733 55.7367 22.3137 54.5973 22.3137 53.8377 23.0733L47.4759 28.6755 47.4759 25.542 52.6033 20.4146C53.3629 19.655 53.3629 18.5156 52.6033 17.756 51.8437 16.9964 50.7043 16.9964 49.9447 17.756L47.4759 20.1298 47.4759 15.1923C47.4759 14.1478 46.6214 13.2933 45.5769 13.2933 44.5324 13.2933 43.6779 14.1478 43.6779 15.1923L43.6779 20.1298 41.2091 17.661C40.4495 16.9014 39.3101 16.9014 38.5504 17.661 37.7908 18.4207 37.7908 19.5601 38.5504 20.3197L43.6779 25.4471 43.6779 28.5805 37.411 22.3137C36.6514 21.5541 35.512 21.5541 34.7524 22.3137 33.9928 23.0733 33.9928 24.2127 34.7524 24.9723L43.6779 33.8978 43.6779 38.0757C42.3485 38.4555 41.1142 39.1202 40.1646 40.0697L36.5565 37.9807 33.2331 25.9219C32.9483 24.8774 31.9038 24.3077 30.9543 24.5925 29.9098 24.8774 29.3401 25.9219 29.625 26.8714L31.9038 35.417 29.1502 33.8029 27.2512 26.7764C26.9663 25.732 25.9219 25.1622 24.9723 25.4471 23.9279 25.732 23.3582 26.7764 23.643 27.7259L24.4976 31.0493 20.2247 28.5805C19.2752 28.0108 18.1358 28.3906 17.661 29.2452 17.0913 30.1947 17.4711 31.3341 18.3257 31.8089L22.5985 34.2776 19.2752 35.1322C18.2308 35.417 17.661 36.4615 17.9459 37.411 18.1358 38.2656 18.8954 38.8353 19.75 38.8353 19.9399 38.8353 20.0348 38.8353 20.2247 38.7404L27.2512 36.8413 30.0048 38.4555 21.4591 40.7343C20.4146 41.0192 19.8449 42.0637 20.1298 43.0132 20.3197 43.8678 21.0793 44.4375 21.9339 44.4375 22.1238 44.4375 22.2187 44.4375 22.4086 44.3425L34.6574 41.1142 38.2656 43.2031C38.0757 44.1526 37.9807 44.9122 37.9807 45.5769 37.9807 46.2416 38.0757 47.0012 38.2656 47.5709L34.6574 49.6598 22.4086 46.4315C21.3642 46.1466 20.3197 46.7163 20.1298 47.7608 19.9399 48.8053 20.4146 49.8497 21.4591 50.0396L30.0048 52.3185 27.2512 53.9327 20.2247 52.0336C19.1803 51.7488 18.1358 52.3185 17.9459 53.3629 17.756 54.4074 18.2308 55.4519 19.2752 55.6418L22.5985 56.4963 18.3257 58.9651C17.3762 59.5348 17.0913 60.6742 17.661 61.5288 18.0409 62.0985 18.6106 62.4783 19.2752 62.4783 19.5601 62.4783 19.9399 62.3834 20.2247 62.1935L24.4976 59.7247 23.643 63.048C23.3582 64.0925 23.9279 65.137 24.9723 65.3269 25.1622 65.3269 25.2572 65.4218 25.4471 65.4218 26.3017 65.4218 27.0613 64.8521 27.2512 63.9975L29.1502 56.9711 31.9038 55.3569 29.625 63.9026C29.3401 64.9471 29.9098 65.9915 30.9543 66.1814 31.1442 66.1814 31.2392 66.2764 31.4291 66.2764 32.2836 66.2764 33.0432 65.7067 33.2331 64.8521L36.4615 52.6033 40.0697 50.5144C41.0192 51.4639 42.2536 52.2235 43.5829 52.5084L43.5829 56.6863 34.6574 65.6117C33.8978 66.3713 33.8978 67.5108 34.6574 68.2704 35.417 69.03 36.5565 69.03 37.3161 68.2704L43.5829 62.0036 43.5829 65.137 38.4555 70.2644C37.6959 71.024 37.6959 72.1634 38.4555 72.923 39.2151 73.6826 40.3545 73.6826 41.1142 72.923L43.5829 70.4543 43.5829 75.9615C43.5829 77.006 44.4375 77.8605 45.4819 77.8605 46.5264 77.8605 47.381 77.006 47.381 75.9615L47.381 71.024 49.8497 73.4927C50.3245 73.8725 50.7992 74.0624 51.274 74.0624 51.7488 74.0624 52.2235 73.8725 52.6033 73.4927 53.3629 72.7331 53.3629 71.5937 52.6033 70.8341L47.4759 65.7067 47.4759 62.5733 53.7427 68.8401C54.1226 69.1249 54.5973 69.3148 55.0721 69.3148 55.5468 69.3148 56.0216 69.1249 56.4014 68.7451 57.161 67.9855 57.161 66.8461 56.4014 66.0865L47.4759 57.161 47.4759 52.9831C48.8053 52.6033 50.0396 51.9387 50.9891 50.9891L54.5973 53.0781 57.9206 65.2319C58.1105 66.0865 58.8701 66.6562 59.7247 66.6562 59.9146 66.6562 60.0096 66.6562 60.1995 66.5612 61.2439 66.2764 61.8137 65.2319 61.5288 64.2824L59.25 55.7367 62.0036 57.3509 63.9026 64.3774C64.0925 65.2319 64.8521 65.8016 65.7067 65.8016 65.8966 65.8016 65.9915 65.8016 66.1814 65.7067 67.2259 65.4218 67.7956 64.3774 67.5108 63.4278L66.6562 60.1045 70.929 62.5733C71.2139 62.7632 71.5937 62.8581 71.8785 62.8581 72.5432 62.8581 73.2079 62.4783 73.4927 61.9086 74.0624 60.7692 73.7776 59.6298 72.8281 59.155Z" fill="#FFFFFF" fill-rule="nonzero" fill-opacity="1" transform="matrix(1.00156 0 0 1 26.7455 26.8164)"/></g></g></g></g></g></g><g><g><g><path d="M189.353 153.803 178.244 147.384 186.884 145.162C189.6 144.422 191.081 141.706 190.34 139.237 189.6 136.769 186.884 135.041 184.415 135.781L166.147 140.719 158.987 136.522 181.206 130.597C183.922 129.856 185.403 127.141 184.662 124.672 183.922 122.203 181.206 120.475 178.737 121.216L146.891 129.609 137.509 124.178C138.003 122.45 138.25 120.722 138.25 118.994 138.25 117.266 138.003 115.291 137.509 113.809L146.891 108.378 178.737 116.772C179.231 116.772 179.478 117.019 179.972 117.019 182.194 117.019 184.169 115.537 184.662 113.316 185.403 110.6 183.922 107.884 181.206 107.391L158.987 101.466 166.147 97.2687 184.415 102.206C184.909 102.206 185.156 102.453 185.65 102.453 187.872 102.453 189.847 100.972 190.34 98.7499 191.081 96.0343 189.6 93.3187 186.884 92.8249L178.244 90.6031 189.353 84.1843C191.822 82.7031 192.562 79.7406 191.081 77.5187 189.6 75.0499 186.637 74.3093 184.415 75.7906L173.306 82.2093 175.528 73.5687C176.269 70.8531 174.787 68.1375 172.072 67.6437 169.356 66.9031 166.641 68.3843 166.147 71.1L161.209 89.3687 154.05 93.5656 159.975 71.3468C160.716 68.6312 159.234 65.9156 156.519 65.4218 153.803 64.6812 151.087 66.1625 150.594 68.8781L142.2 100.725 132.819 106.156C130.35 103.687 127.141 101.712 123.684 100.972L123.684 90.1093 146.891 66.9031C148.866 64.9281 148.866 61.9656 146.891 59.9906 144.916 58.0156 141.953 58.0156 139.978 59.9906L123.437 74.5562 123.437 66.4093 136.769 53.0781C138.744 51.1031 138.744 48.1406 136.769 46.1656 134.794 44.1906 131.831 44.1906 129.856 46.1656L123.437 52.3375 123.437 39.5C123.437 36.7843 121.216 34.5625 118.5 34.5625 115.784 34.5625 113.562 36.7843 113.562 39.5L113.562 52.3375 107.144 45.9187C105.169 43.9437 102.206 43.9437 100.231 45.9187 98.2562 47.8937 98.2562 50.8562 100.231 52.8312L113.562 66.1625 113.562 74.3093 97.2687 58.0156C95.2937 56.0406 92.3312 56.0406 90.3562 58.0156 88.3812 59.9906 88.3812 62.9531 90.3562 64.9281L113.562 88.1343 113.562 98.9968C110.106 99.9843 106.897 101.712 104.428 104.181L95.0468 98.7499 86.4062 67.3968C85.6656 64.6812 82.9499 63.2 80.4812 63.9406 77.7656 64.6812 76.2843 67.3968 77.0249 69.8656L82.9499 92.0843 75.7906 87.8874 70.8531 69.6187C70.1124 66.9031 67.3968 65.4218 64.9281 66.1625 62.2125 66.9031 60.7312 69.6187 61.4718 72.0875L63.6937 80.7281 52.5843 74.3093C50.1156 72.8281 47.1531 73.8156 45.9187 76.0374 44.4375 78.5062 45.425 81.4687 47.6468 82.7031L58.7562 89.1218 50.1156 91.3437C47.4 92.0843 45.9187 94.7999 46.6593 97.2687 47.1531 99.4906 49.1281 100.972 51.35 100.972 51.8437 100.972 52.0906 100.972 52.5843 100.725L70.8531 95.7874 78.0125 99.9843 55.7937 105.909C53.0781 106.65 51.5968 109.366 52.3375 111.834 52.8312 114.056 54.8062 115.537 57.0281 115.537 57.5218 115.537 57.7687 115.537 58.2625 115.291L90.1093 106.897 99.4906 112.328C98.9968 114.797 98.7499 116.772 98.7499 118.5 98.7499 120.228 98.9968 122.203 99.4906 123.684L90.1093 129.116 58.2625 120.722C55.5468 119.981 52.8312 121.462 52.3375 124.178 51.8437 126.894 53.0781 129.609 55.7937 130.103L78.0125 136.028 70.8531 140.225 52.5843 135.287C49.8687 134.547 47.1531 136.028 46.6593 138.744 46.1656 141.459 47.4 144.175 50.1156 144.669L58.7562 146.891 47.6468 153.309C45.1781 154.791 44.4375 157.753 45.9187 159.975 46.9062 161.456 48.3875 162.444 50.1156 162.444 50.8562 162.444 51.8437 162.197 52.5843 161.703L63.6937 155.284 61.4718 163.925C60.7312 166.641 62.2125 169.356 64.9281 169.85 65.4218 169.85 65.6687 170.097 66.1625 170.097 68.3843 170.097 70.3593 168.616 70.8531 166.394L75.7906 148.125 82.9499 143.928 77.0249 166.147C76.2843 168.862 77.7656 171.578 80.4812 172.072 80.9749 172.072 81.2218 172.319 81.7156 172.319 83.9374 172.319 85.9124 170.837 86.4062 168.616L94.7999 136.769 104.181 131.337C106.65 133.806 109.859 135.781 113.316 136.522L113.316 147.384 90.1093 170.59C88.1343 172.566 88.1343 175.528 90.1093 177.503 92.0843 179.478 95.0468 179.478 97.0218 177.503L113.316 161.209 113.316 169.356 99.9843 182.687C98.0093 184.662 98.0093 187.625 99.9843 189.6 101.959 191.575 104.922 191.575 106.897 189.6L113.316 183.181 113.316 197.5C113.316 200.215 115.537 202.437 118.253 202.437 120.969 202.437 123.191 200.215 123.191 197.5L123.191 184.662 129.609 191.081C130.844 192.069 132.078 192.562 133.312 192.562 134.547 192.562 135.781 192.069 136.769 191.081 138.744 189.106 138.744 186.144 136.769 184.169L123.437 170.837 123.437 162.691 139.731 178.984C140.719 179.725 141.953 180.219 143.187 180.219 144.422 180.219 145.656 179.725 146.644 178.737 148.619 176.762 148.619 173.8 146.644 171.825L123.437 148.619 123.437 137.756C126.894 136.769 130.103 135.041 132.572 132.572L141.953 138.003 150.594 169.603C151.087 171.825 153.062 173.306 155.284 173.306 155.778 173.306 156.025 173.306 156.519 173.059 159.234 172.319 160.716 169.603 159.975 167.134L154.05 144.916 161.209 149.112 166.147 167.381C166.641 169.603 168.616 171.084 170.837 171.084 171.331 171.084 171.578 171.084 172.072 170.837 174.787 170.097 176.269 167.381 175.528 164.912L173.306 156.272 184.415 162.691C185.156 163.184 186.144 163.431 186.884 163.431 188.612 163.431 190.34 162.444 191.081 160.962 192.562 158 191.822 155.037 189.353 153.803Z" fill="#FFFFFF" fill-rule="nonzero" fill-opacity="1" transform="matrix(1.00422 0 0 1 2578 1639)"/></g></g></g><g clip-path="url(#clip19)" filter="url(#fx5)" transform="matrix(2.6 0 0 2.6 2077 1580)"><g clip-path="url(#clip20)"><g clip-path="url(#clip21)" transform="matrix(1 0 0 1 3.86238e-05 -1.71661e-05)"><g transform="matrix(1 0 0 1 3.86238e-05 -1.71661e-05)"><g transform="matrix(1 0 0 1 3.86238e-05 -1.71661e-05)"><g transform="matrix(1 0 0 1 3.86238e-05 -1.71661e-05)"><path d="M99.6446 85.9714 95.3718 83.5027 98.6951 82.6481C99.7396 82.3633 100.309 81.3188 100.024 80.3693 99.7396 79.4198 98.6951 78.7551 97.7456 79.04L90.7191 80.939 87.9655 79.3248 96.5112 77.046C97.5557 76.7611 98.1254 75.7166 97.8405 74.7671 97.5557 73.8176 96.5112 73.1529 95.5617 73.4378L83.3129 76.6662 79.7047 74.5772C79.8946 73.9126 79.9896 73.2479 79.9896 72.5832 79.9896 71.9186 79.8946 71.159 79.7047 70.5892L83.3129 68.5003 95.5617 71.7287C95.7516 71.7287 95.8465 71.8236 96.0364 71.8236 96.891 71.8236 97.6506 71.2539 97.8405 70.3993 98.1254 69.3549 97.5557 68.3104 96.5112 68.1205L87.9655 65.8417 90.7191 64.2275 97.7456 66.1265C97.9355 66.1265 98.0304 66.2215 98.2203 66.2215 99.0749 66.2215 99.8345 65.6517 100.024 64.7972 100.309 63.7527 99.7396 62.7082 98.6951 62.5183L95.3718 61.6638 99.6446 59.195C100.594 58.6253 100.879 57.4859 100.309 56.6313 99.7396 55.6818 98.6001 55.3969 97.7456 55.9667L93.4727 58.4354 94.3273 55.1121C94.6122 54.0676 94.0425 53.0232 92.998 52.8332 91.9535 52.5484 90.909 53.1181 90.7191 54.1626L88.8201 61.189 86.0665 62.8032 88.3453 54.2575C88.6302 53.2131 88.0605 52.1686 87.016 51.9787 85.9715 51.6938 84.9271 52.2635 84.7372 53.308L81.5088 65.5568 77.9006 67.6457C76.9511 66.6962 75.7168 65.9366 74.3874 65.6517L74.3874 61.4739 83.3129 52.5484C84.0725 51.7888 84.0725 50.6494 83.3129 49.8897 82.5533 49.1301 81.4139 49.1301 80.6542 49.8897L74.2925 55.4919 74.2925 52.3585 79.4199 47.2311C80.1795 46.4715 80.1795 45.3321 79.4199 44.5724 78.6603 43.8128 77.5208 43.8128 76.7612 44.5724L74.2925 46.9462 74.2925 42.0087C74.2925 40.9643 73.4379 40.1097 72.3934 40.1097 71.349 40.1097 70.4944 40.9643 70.4944 42.0087L70.4944 46.9462 68.0257 44.4775C67.266 43.7179 66.1266 43.7179 65.367 44.4775 64.6074 45.2371 64.6074 46.3765 65.367 47.1361L70.4944 52.2635 70.4944 55.3969 64.2276 49.1301C63.468 48.3705 62.3285 48.3705 61.5689 49.1301 60.8093 49.8897 60.8093 51.0292 61.5689 51.7888L70.4944 60.7143 70.4944 64.8921C69.1651 65.2719 67.9307 65.9366 66.9812 66.8861L63.373 64.7972 60.0497 52.7383C59.7648 51.6938 58.7204 51.1241 57.7708 51.409 56.7264 51.6938 56.1567 52.7383 56.4415 53.6878L58.7204 62.2335 55.9668 60.6193 54.0677 53.5929C53.7829 52.5484 52.7384 51.9787 51.7889 52.2635 50.7444 52.5484 50.1747 53.5929 50.4596 54.5424L51.3141 57.8657 47.0413 55.3969C46.0918 54.8272 44.9523 55.207 44.4776 56.0616 43.9079 57.0111 44.2877 58.1506 45.1423 58.6253L49.4151 61.0941 46.0918 61.9486C45.0473 62.2335 44.4776 63.278 44.7624 64.2275 44.9523 65.082 45.712 65.6517 46.5665 65.6517 46.7564 65.6517 46.8514 65.6517 47.0413 65.5568L54.0677 63.6578 56.8213 65.2719 48.2757 67.5508C47.2312 67.8356 46.6615 68.8801 46.9463 69.8296 47.1362 70.6842 47.8959 71.2539 48.7504 71.2539 48.9403 71.2539 49.0353 71.2539 49.2252 71.159L61.474 67.9306 65.0821 70.0195C64.8922 70.9691 64.7973 71.7287 64.7973 72.3933 64.7973 73.058 64.8922 73.8176 65.0821 74.3873L61.474 76.4763 49.2252 73.2479C48.1807 72.963 47.1362 73.5328 46.9463 74.5772 46.7564 75.6217 47.2312 76.6662 48.2757 76.8561L56.8213 79.1349 54.0677 80.7491 47.0413 78.8501C45.9968 78.5652 44.9523 79.1349 44.7624 80.1794 44.5725 81.2239 45.0473 82.2683 46.0918 82.4582L49.4151 83.3128 45.1423 85.7815C44.1927 86.3512 43.9079 87.4907 44.4776 88.3452 44.8574 88.915 45.4271 89.2948 46.0918 89.2948 46.3766 89.2948 46.7564 89.1998 47.0413 89.0099L51.3141 86.5412 50.4596 89.8645C50.1747 90.9089 50.7444 91.9534 51.7889 92.1433 51.9788 92.1433 52.0737 92.2383 52.2636 92.2383 53.1182 92.2383 53.8778 91.6686 54.0677 90.814L55.9668 83.7876 58.7204 82.1734 56.4415 90.719C56.1567 91.7635 56.7264 92.808 57.7708 92.9979 57.9608 92.9979 58.0557 93.0928 58.2456 93.0928 59.1002 93.0928 59.8598 92.5231 60.0497 91.6686L63.2781 79.4198 66.8862 77.3308C67.8357 78.2803 69.0701 79.04 70.3994 79.3248L70.3994 83.5027 61.474 92.4282C60.7144 93.1878 60.7144 94.3272 61.474 95.0868 62.2336 95.8464 63.373 95.8464 64.1326 95.0868L70.3994 88.82 70.3994 91.9534 65.272 97.0808C64.5124 97.8404 64.5124 98.9799 65.272 99.7395 66.0317 100.499 67.1711 100.499 67.9307 99.7395L70.3994 97.2707 70.3994 102.778C70.3994 103.822 71.254 104.677 72.2985 104.677 73.3429 104.677 74.1975 103.822 74.1975 102.778L74.1975 97.8404 76.6663 100.309C77.141 100.689 77.6158 100.879 78.0905 100.879 78.5653 100.879 79.0401 100.689 79.4199 100.309 80.1795 99.5496 80.1795 98.4101 79.4199 97.6505L74.2925 92.5231 74.2925 89.3897 80.5593 95.6565C80.9391 95.9414 81.4139 96.1313 81.8886 96.1313 82.3634 96.1313 82.8381 95.9414 83.2179 95.5616 83.9776 94.802 83.9776 93.6625 83.2179 92.9029L74.2925 83.9775 74.2925 79.7996C75.6218 79.4198 76.8562 78.7551 77.8057 77.8056L81.4139 79.8945 84.7372 92.0484C84.9271 92.9029 85.6867 93.4726 86.5413 93.4726 86.7312 93.4726 86.8261 93.4726 87.016 93.3777 88.0605 93.0928 88.6302 92.0484 88.3453 91.0988L86.0665 82.5532 88.8201 84.1674 90.7191 91.1938C90.909 92.0484 91.6687 92.6181 92.5232 92.6181 92.7131 92.6181 92.8081 92.6181 92.998 92.5231 94.0425 92.2383 94.6122 91.1938 94.3273 90.2443L93.4727 86.921 97.7456 89.3897C98.0304 89.5796 98.4102 89.6746 98.6951 89.6746 99.3598 89.6746 100.024 89.2948 100.309 88.725 100.879 87.5856 100.594 86.4462 99.6446 85.9714Z" fill="#FFFFFF" fill-rule="nonzero" fill-opacity="1"/></g></g></g></g></g></g><g><g><g><path d="M2326.35 1793.8 2315.24 1787.38 2323.88 1785.16C2326.6 1784.42 2328.08 1781.71 2327.34 1779.24 2326.6 1776.77 2323.88 1775.04 2321.42 1775.78L2303.15 1780.72 2295.99 1776.52 2318.21 1770.6C2320.92 1769.86 2322.4 1767.14 2321.66 1764.67 2320.92 1762.2 2318.21 1760.47 2315.74 1761.22L2283.89 1769.61 2274.51 1764.18C2275 1762.45 2275.25 1760.72 2275.25 1758.99 2275.25 1757.27 2275 1755.29 2274.51 1753.81L2283.89 1748.38 2315.74 1756.77C2316.23 1756.77 2316.48 1757.02 2316.97 1757.02 2319.19 1757.02 2321.17 1755.54 2321.66 1753.32 2322.4 1750.6 2320.92 1747.88 2318.21 1747.39L2295.99 1741.47 2303.15 1737.27 2321.42 1742.21C2321.91 1742.21 2322.16 1742.45 2322.65 1742.45 2324.87 1742.45 2326.85 1740.97 2327.34 1738.75 2328.08 1736.03 2326.6 1733.32 2323.88 1732.82L2315.24 1730.6 2326.35 1724.18C2328.82 1722.7 2329.56 1719.74 2328.08 1717.52 2326.6 1715.05 2323.64 1714.31 2321.42 1715.79L2310.31 1722.21 2312.53 1713.57C2313.27 1710.85 2311.79 1708.14 2309.07 1707.64 2306.36 1706.9 2303.64 1708.38 2303.15 1711.1L2298.21 1729.37 2291.05 1733.57 2296.97 1711.35C2297.72 1708.63 2296.23 1705.92 2293.52 1705.42 2290.8 1704.68 2288.09 1706.16 2287.59 1708.88L2279.2 1740.72 2269.82 1746.16C2267.35 1743.69 2264.14 1741.71 2260.68 1740.97L2260.68 1730.11 2283.89 1706.9C2285.87 1704.93 2285.87 1701.97 2283.89 1699.99 2281.92 1698.02 2278.95 1698.02 2276.98 1699.99L2260.44 1714.56 2260.44 1706.41 2273.77 1693.08C2275.74 1691.1 2275.74 1688.14 2273.77 1686.17 2271.79 1684.19 2268.83 1684.19 2266.86 1686.17L2260.44 1692.34 2260.44 1679.5C2260.44 1676.78 2258.22 1674.56 2255.5 1674.56 2252.78 1674.56 2250.56 1676.78 2250.56 1679.5L2250.56 1692.34 2244.14 1685.92C2242.17 1683.94 2239.21 1683.94 2237.23 1685.92 2235.26 1687.89 2235.26 1690.86 2237.23 1692.83L2250.56 1706.16 2250.56 1714.31 2234.27 1698.02C2232.29 1696.04 2229.33 1696.04 2227.36 1698.02 2225.38 1699.99 2225.38 1702.95 2227.36 1704.93L2250.56 1728.13 2250.56 1739C2247.11 1739.98 2243.9 1741.71 2241.43 1744.18L2232.05 1738.75 2223.41 1707.4C2222.67 1704.68 2219.95 1703.2 2217.48 1703.94 2214.77 1704.68 2213.28 1707.4 2214.02 1709.87L2219.95 1732.08 2212.79 1727.89 2207.85 1709.62C2207.11 1706.9 2204.4 1705.42 2201.93 1706.16 2199.21 1706.9 2197.73 1709.62 2198.47 1712.09L2200.69 1720.73 2189.58 1714.31C2187.12 1712.83 2184.15 1713.82 2182.92 1716.04 2181.44 1718.51 2182.43 1721.47 2184.65 1722.7L2195.76 1729.12 2187.12 1731.34C2184.4 1732.08 2182.92 1734.8 2183.66 1737.27 2184.15 1739.49 2186.13 1740.97 2188.35 1740.97 2188.84 1740.97 2189.09 1740.97 2189.58 1740.72L2207.85 1735.79 2215.01 1739.98 2192.79 1745.91C2190.08 1746.65 2188.6 1749.37 2189.34 1751.83 2189.83 1754.06 2191.81 1755.54 2194.03 1755.54 2194.52 1755.54 2194.77 1755.54 2195.26 1755.29L2227.11 1746.9 2236.49 1752.33C2236 1754.8 2235.75 1756.77 2235.75 1758.5 2235.75 1760.23 2236 1762.2 2236.49 1763.68L2227.11 1769.12 2195.26 1760.72C2192.55 1759.98 2189.83 1761.46 2189.34 1764.18 2188.84 1766.89 2190.08 1769.61 2192.79 1770.1L2215.01 1776.03 2207.85 1780.22 2189.58 1775.29C2186.87 1774.55 2184.15 1776.03 2183.66 1778.74 2183.17 1781.46 2184.4 1784.17 2187.12 1784.67L2195.76 1786.89 2184.65 1793.31C2182.18 1794.79 2181.44 1797.75 2182.92 1799.97 2183.91 1801.46 2185.39 1802.44 2187.12 1802.44 2187.86 1802.44 2188.84 1802.2 2189.58 1801.7L2200.69 1795.28 2198.47 1803.92C2197.73 1806.64 2199.21 1809.36 2201.93 1809.85 2202.42 1809.85 2202.67 1810.1 2203.16 1810.1 2205.38 1810.1 2207.36 1808.62 2207.85 1806.39L2212.79 1788.12 2219.95 1783.93 2214.02 1806.15C2213.28 1808.86 2214.77 1811.58 2217.48 1812.07 2217.97 1812.07 2218.22 1812.32 2218.72 1812.32 2220.94 1812.32 2222.91 1810.84 2223.41 1808.62L2231.8 1776.77 2241.18 1771.34C2243.65 1773.81 2246.86 1775.78 2250.32 1776.52L2250.32 1787.38 2227.11 1810.59C2225.13 1812.57 2225.13 1815.53 2227.11 1817.5 2229.08 1819.48 2232.05 1819.48 2234.02 1817.5L2250.32 1801.21 2250.32 1809.36 2236.98 1822.69C2235.01 1824.66 2235.01 1827.62 2236.98 1829.6 2238.96 1831.57 2241.92 1831.57 2243.9 1829.6L2250.32 1823.18 2250.32 1837.5C2250.32 1840.22 2252.54 1842.44 2255.25 1842.44 2257.97 1842.44 2260.19 1840.22 2260.19 1837.5L2260.19 1824.66 2266.61 1831.08C2267.84 1832.07 2269.08 1832.56 2270.31 1832.56 2271.55 1832.56 2272.78 1832.07 2273.77 1831.08 2275.74 1829.11 2275.74 1826.14 2273.77 1824.17L2260.44 1810.84 2260.44 1802.69 2276.73 1818.98C2277.72 1819.72 2278.95 1820.22 2280.19 1820.22 2281.42 1820.22 2282.66 1819.72 2283.64 1818.74 2285.62 1816.76 2285.62 1813.8 2283.64 1811.82L2260.44 1788.62 2260.44 1777.76C2263.89 1776.77 2267.1 1775.04 2269.57 1772.57L2278.95 1778 2287.59 1809.6C2288.09 1811.82 2290.06 1813.31 2292.28 1813.31 2292.78 1813.31 2293.02 1813.31 2293.52 1813.06 2296.23 1812.32 2297.72 1809.6 2296.97 1807.13L2291.05 1784.92 2298.21 1789.11 2303.15 1807.38C2303.64 1809.6 2305.62 1811.08 2307.84 1811.08 2308.33 1811.08 2308.58 1811.08 2309.07 1810.84 2311.79 1810.1 2313.27 1807.38 2312.53 1804.91L2310.31 1796.27 2321.42 1802.69C2322.16 1803.18 2323.14 1803.43 2323.88 1803.43 2325.61 1803.43 2327.34 1802.44 2328.08 1800.96 2329.56 1798 2328.82 1795.04 2326.35 1793.8Z" fill="#FFFFFF" fill-rule="nonzero" fill-opacity="1"/></g></g></g></g></g></svg>