<svg width="1054" height="999" xmlns="http://www.w3.org/2000/svg" xmlns:xlink="http://www.w3.org/1999/xlink" xml:space="preserve" overflow="hidden"><defs><filter id="fx0" x="-10%" y="-10%" width="120%" height="120%" filterUnits="userSpaceOnUse" primitiveUnits="userSpaceOnUse"><feComponentTransfer color-interpolation-filters="sRGB"><feFuncR type="discrete" tableValues="0.000000 0.000000"/><feFuncG type="discrete" tableValues="0.000000 0.000000"/><feFuncB type="discrete" tableValues="0.000000 0.000000"/><feFuncA type="linear" slope="0.650980" intercept="0.000000"/></feComponentTransfer><feGaussianBlur stdDeviation="8.774545 8.774545"/></filter><filter id="fx1" x="-10%" y="-10%" width="120%" height="120%" filterUnits="userSpaceOnUse" primitiveUnits="userSpaceOnUse"><feComponentTransfer color-interpolation-filters="sRGB"><feFuncR type="discrete" tableValues="0.000000 0.000000"/><feFuncG type="discrete" tableValues="0.000000 0.000000"/><feFuncB type="discrete" tableValues="0.000000 0.000000"/><feFuncA type="linear" slope="0.650980" intercept="0.000000"/></feComponentTransfer><feGaussianBlur stdDeviation="8.790307 8.790307"/></filter><filter id="fx2" x="-10%" y="-10%" width="120%" height="120%" filterUnits="userSpaceOnUse" primitiveUnits="userSpaceOnUse"><feComponentTransfer color-interpolation-filters="sRGB"><feFuncR type="discrete" tableValues="0.000000 0.000000"/><feFuncG type="discrete" tableValues="0.000000 0.000000"/><feFuncB type="discrete" tableValues="0.000000 0.000000"/><feFuncA type="linear" slope="0.650980" intercept="0.000000"/></feComponentTransfer><feGaussianBlur stdDeviation="8.782209 8.782209"/></filter><filter id="fx3" x="-10%" y="-10%" width="120%" height="120%" filterUnits="userSpaceOnUse" primitiveUnits="userSpaceOnUse"><feComponentTransfer color-interpolation-filters="sRGB"><feFuncR type="discrete" tableValues="0.000000 0.000000"/><feFuncG type="discrete" tableValues="0.000000 0.000000"/><feFuncB type="discrete" tableValues="0.000000 0.000000"/><feFuncA type="linear" slope="0.650980" intercept="0.000000"/></feComponentTransfer><feGaussianBlur stdDeviation="8.777061 8.769133"/></filter><clipPath id="clip4"><rect x="11.5708" y="52.0218" width="247.361" height="165.545"/></clipPath><clipPath id="clip5"><rect x="0" y="0" width="273" height="273"/></clipPath><clipPath id="clip6"><rect x="0" y="0" width="273" height="273"/></clipPath><clipPath id="clip7"><rect x="15.0374" y="68.0081" width="307.72" height="200.581"/></clipPath><clipPath id="clip8"><rect x="0" y="0" width="341" height="341"/></clipPath><clipPath id="clip9"><rect x="0" y="0" width="341" height="341"/></clipPath><clipPath id="clip10"><rect x="9.52701" y="42.5945" width="211.865" height="144.983"/></clipPath><clipPath id="clip11"><rect x="109.291" y="4.75684" width="186.548" height="139.2"/></clipPath><clipPath id="clip12"><rect x="0" y="0" width="401" height="150"/></clipPath><clipPath id="clip13"><rect x="0" y="0" width="401" height="150"/></clipPath><clipPath id="clip14"><rect x="26" y="26" width="349" height="98"/></clipPath><clipPath id="clip15"><rect x="26" y="26" width="349" height="98"/></clipPath><clipPath id="clip16"><rect x="1007" y="1656" width="909" height="253"/></clipPath><clipPath id="clip17"><rect x="1007" y="1656" width="909" height="253"/></clipPath></defs><g transform="translate(-944 -990)"><g><g clip-path="url(#clip4)" filter="url(#fx0)" transform="matrix(2.61172 0 0 2.61172 1242 1002)"><g clip-path="url(#clip5)"><g clip-path="url(#clip6)" transform="matrix(1 0 0 1 -5.96046e-07 -9.17912e-06)"><g transform="matrix(1 0 0 1 -5.96046e-07 -9.17912e-06)"><g transform="matrix(1 0 0 1 -5.96046e-07 -9.17912e-06)"><g transform="matrix(1 0 0 1 -5.96046e-07 -9.17912e-06)"><path d="M205.412 136.165C204.726 136.165 203.812 136.165 203.127 136.165 203.127 136.165 203.127 136.165 203.127 136.165 203.127 124.967 197.642 114.683 188.729 108.284 179.587 101.885 167.932 100.285 157.419 103.942 148.735 87.0298 129.538 78.3454 111.255 82.6876 92.9719 87.0298 79.7167 103.484 79.7167 122.453 79.7167 122.453 79.7167 122.682 79.7167 122.91 67.1472 120.853 54.5777 126.11 46.8074 136.165 39.2657 146.449 37.8945 159.933 43.1508 171.36 48.6357 182.787 60.0625 190.328 72.6321 191.014L72.6321 191.243 205.184 191.243C220.267 191.243 232.608 178.902 232.608 163.818 232.608 148.735 220.496 136.165 205.412 136.165Z" fill="#3B3838" fill-rule="nonzero" fill-opacity="0.64"/></g></g></g></g></g></g><g><g><g><path d="M1768.76 1347.9C1766.97 1347.9 1764.58 1347.9 1762.79 1347.9 1762.79 1347.9 1762.79 1347.9 1762.79 1347.9 1762.79 1318.66 1748.46 1291.8 1725.18 1275.08 1701.31 1258.37 1670.87 1254.19 1643.41 1263.74 1620.73 1219.57 1570.59 1196.89 1522.84 1208.23 1475.09 1219.57 1440.48 1262.55 1440.48 1312.09 1440.48 1312.09 1440.48 1312.69 1440.48 1313.28 1407.65 1307.91 1374.82 1321.64 1354.53 1347.9 1334.83 1374.76 1331.25 1409.98 1344.98 1439.82 1359.3 1469.67 1389.14 1489.36 1421.97 1491.15L1421.97 1491.75 1768.16 1491.75C1807.55 1491.75 1839.78 1459.52 1839.78 1420.12 1839.78 1380.73 1808.15 1347.9 1768.76 1347.9Z" fill="#3B3838" fill-rule="nonzero" fill-opacity="0.64"/></g></g></g><g clip-path="url(#clip7)" filter="url(#fx1)" transform="matrix(2.60704 0 0 2.60704 1000 1015)"><g clip-path="url(#clip8)"><g clip-path="url(#clip9)" transform="matrix(1 0 0 1 -8.82149e-06 1.57654e-05)"><g transform="matrix(1 0 0 1 -8.82149e-06 1.57654e-05)"><g transform="matrix(1 0 0 1 -8.82149e-06 1.57654e-05)"><g transform="matrix(1 0 0 1 -8.82149e-06 1.57654e-05)"><path d="M260.773 170.094C259.875 170.094 258.678 170.094 257.781 170.094 257.781 170.094 257.781 170.094 257.781 170.094 257.781 155.43 250.598 141.963 238.927 133.583 226.956 125.204 211.693 123.109 197.927 127.897 186.554 105.751 161.416 94.3791 137.474 100.065 113.532 105.751 96.1747 127.299 96.1747 152.138 96.1747 152.138 96.1747 152.437 96.1747 152.737 79.7149 150.043 63.255 156.926 53.0799 170.094 43.2039 183.562 41.4083 201.218 48.2915 216.182 55.474 231.145 70.4375 241.021 86.8974 241.919L86.8974 242.218 260.474 242.218C280.226 242.218 296.386 226.058 296.386 206.306 296.386 186.554 280.525 170.094 260.773 170.094Z" fill="#0D0D0D" fill-rule="nonzero" fill-opacity="1"/></g></g></g></g></g></g><g><g><g><path d="M1670.12 1448.72C1667.78 1448.72 1664.66 1448.72 1662.32 1448.72 1662.32 1448.72 1662.32 1448.72 1662.32 1448.72 1662.32 1410.49 1643.6 1375.38 1613.17 1353.53 1581.96 1331.69 1542.17 1326.23 1506.28 1338.71 1476.63 1280.97 1411.09 1251.33 1348.68 1266.15 1286.26 1280.97 1241.01 1337.15 1241.01 1401.91 1241.01 1401.91 1241.01 1402.69 1241.01 1403.47 1198.1 1396.45 1155.19 1414.39 1128.66 1448.72 1102.91 1483.83 1098.23 1529.86 1116.18 1568.87 1134.9 1607.88 1173.91 1633.63 1216.82 1635.97L1216.82 1636.75 1669.34 1636.75C1720.84 1636.75 1762.97 1594.62 1762.97 1543.12 1762.97 1491.63 1721.62 1448.72 1670.12 1448.72Z" fill="#0D0D0D" fill-rule="nonzero" fill-opacity="1"/></g></g></g><g clip-path="url(#clip10)" filter="url(#fx2)" transform="matrix(2.60944 0 0 2.60944 961 1324)"><g transform="translate(-5.68434e-14 0)"><g transform="matrix(1 0 0 1 3.03984e-06 4.22001e-05)"><g transform="matrix(1 0 0 1 3.03984e-06 4.22001e-05)"><g transform="matrix(1 0 0 1 3.03984e-06 4.22001e-05)"><g transform="matrix(1 0 0 1 3.03984e-06 4.22001e-05)"><path d="M172.814 116.207C172.253 116.207 171.506 116.207 170.946 116.207 170.946 116.207 170.946 116.207 170.946 116.207 170.946 107.053 166.462 98.6457 159.176 93.4147 151.703 88.1837 142.175 86.876 133.581 89.8651 126.482 76.0403 110.789 68.9411 95.8434 72.4907 80.8977 76.0403 70.062 89.4915 70.062 104.998 70.062 104.998 70.062 105.185 70.062 105.371 59.7868 103.69 49.5116 107.987 43.1597 116.207 36.9946 124.614 35.8736 135.636 40.1705 144.978 44.6543 154.319 53.9953 160.484 64.2705 161.044L64.2705 161.231 172.627 161.231C184.957 161.231 195.046 151.143 195.046 138.812 195.046 126.482 185.144 116.207 172.814 116.207Z" fill="#404040" fill-rule="nonzero" fill-opacity="0.47"/></g></g></g></g></g></g><g><g><g><path d="M1402.23 1617.51C1400.76 1617.51 1398.81 1617.51 1397.35 1617.51 1397.35 1617.51 1397.35 1617.51 1397.35 1617.51 1397.35 1593.62 1385.65 1571.69 1366.64 1558.04 1347.14 1544.39 1322.28 1540.97 1299.85 1548.77 1281.33 1512.7 1240.38 1494.17 1201.38 1503.44 1162.38 1512.7 1134.1 1547.8 1134.1 1588.26 1134.1 1588.26 1134.1 1588.75 1134.1 1589.24 1107.29 1584.85 1080.47 1596.06 1063.9 1617.51 1047.81 1639.45 1044.89 1668.21 1056.1 1692.59 1067.8 1716.96 1092.17 1733.05 1118.99 1734.51L1118.99 1735 1401.74 1735C1433.91 1735 1460.24 1708.68 1460.24 1676.5 1460.24 1644.32 1434.4 1617.51 1402.23 1617.51Z" fill="#404040" fill-rule="nonzero" fill-opacity="0.47"/></g></g></g><g clip-path="url(#clip11)" filter="url(#fx3)" transform="matrix(2.61097 0 0 2.61333 948 1597)"><g clip-path="url(#clip12)"><g clip-path="url(#clip13)" transform="matrix(1 0 0 1 -1.63317e-05 -4.32134e-06)"><g clip-path="url(#clip14)" transform="matrix(1 0 0 1 -1.63317e-05 -4.32134e-06)"><g clip-path="url(#clip15)" transform="matrix(1 0 0 1 -1.63317e-05 -4.32134e-06)"><g transform="matrix(1 0 0 1 -1.63317e-05 -4.32134e-06)"><path d="M296.195 156.936C296.195 146.835 291.865 137.455 284.289 130.961 276.713 124.467 266.611 121.581 256.51 123.384L256.51 122.663C256.51 108.953 250.016 95.6049 238.471 87.6678 227.287 79.3701 212.856 77.2054 199.507 81.5347 188.324 60.6099 164.152 49.7867 141.062 55.559 117.973 60.9706 101.377 81.5347 101.016 105.346 85.1424 102.46 68.9076 108.593 59.1668 121.22 49.0651 133.847 46.9005 150.803 53.3944 165.595 59.8883 180.387 73.9585 190.127 90.1933 191.21L263.364 191.21C282.124 190.488 296.195 175.336 296.195 156.936Z" fill="#FFC000" fill-rule="nonzero" fill-opacity="1" transform="matrix(1.003 0 0 1 26.7037 -174.576)"/><path d="M202.394 234.502 171.728 234.502 183.273 205.641 155.854 205.641 144.67 252.541 167.759 252.541 153.689 292.226Z" fill="#FFC000" fill-rule="nonzero" fill-opacity="1" transform="matrix(1.003 0 0 1 26.7037 -174.576)"/><path d="M242.079 220.072 226.565 220.072 232.338 205.641 218.989 205.641 213.217 229.091 224.762 229.091 217.546 248.933Z" fill="#FFC000" fill-rule="nonzero" fill-opacity="1" transform="matrix(1.003 0 0 1 26.7037 -174.576)"/><path d="M137.455 220.072 121.941 220.072 127.714 205.641 114.365 205.641 108.593 229.091 120.137 229.091 112.922 248.933Z" fill="#FFC000" fill-rule="nonzero" fill-opacity="1" transform="matrix(1.003 0 0 1 26.7037 -174.576)"/></g></g></g></g></g></g><g clip-path="url(#clip16)"><g clip-path="url(#clip17)"><g><path d="M774.055 410.127C774.055 383.728 762.741 359.214 742.942 342.244 723.143 325.273 696.744 317.73 670.345 322.444L670.345 320.559C670.345 284.732 653.374 249.847 623.204 229.105 593.977 207.42 556.264 201.763 521.38 213.077 492.152 158.394 428.983 130.109 368.643 145.194 308.302 159.337 264.932 213.077 263.99 275.303 222.506 267.761 180.079 283.789 154.622 316.788 128.224 349.786 122.567 394.099 139.537 432.754 156.508 471.41 193.278 496.866 235.705 499.695L688.259 499.695C737.285 497.809 774.055 458.211 774.055 410.127Z" fill="#FFC000" fill-rule="nonzero" fill-opacity="1" transform="matrix(1.00209 0 0 1 1008 1131.05)"/><path d="M528.922 612.833 448.782 612.833 478.953 537.407 407.298 537.407 378.071 659.974 438.411 659.974 401.641 763.684Z" fill="#FFC000" fill-rule="nonzero" fill-opacity="1" transform="matrix(1.00209 0 0 1 1008 1131.05)"/><path d="M632.632 575.12 592.091 575.12 607.176 537.407 572.292 537.407 557.207 598.691 587.377 598.691 568.521 650.546Z" fill="#FFC000" fill-rule="nonzero" fill-opacity="1" transform="matrix(1.00209 0 0 1 1008 1131.05)"/><path d="M359.214 575.12 318.673 575.12 333.758 537.407 298.874 537.407 283.789 598.691 313.959 598.691 295.103 650.546Z" fill="#FFC000" fill-rule="nonzero" fill-opacity="1" transform="matrix(1.00209 0 0 1 1008 1131.05)"/></g></g></g></g></g></svg>